<svg width="106" height="9" viewBox="0 0 106 9" fill="none" xmlns="http://www.w3.org/2000/svg">
<path d="M3.55857 8.5128L1.52084 3.21082V8.5128H0V0.14856H1.65006L4.2345 6.85779L6.80899 0.14856H8.45906V8.5128H6.93822V3.21082L4.90049 8.5128H3.52875H3.55857Z" fill="#006838"/>
<path d="M11.3917 8.5128H9.83105V0.14856H11.3917V8.5128Z" fill="#006838"/>
<path d="M14.2849 2.83424V8.5128H12.7441V0.14856H14.3346L17.2868 5.83704V0.14856H18.8275V8.5128H17.2371L14.2849 2.83424Z" fill="#006838"/>
<path d="M23.2502 8.5128H20.1787V0.14856H23.2502C26.0434 0.14856 26.5006 2.22971 26.5006 4.32077C26.5006 6.41183 26.0136 8.5029 23.2502 8.5029V8.5128ZM23.1309 1.47653H21.7294V7.19475H23.1309C24.4232 7.19475 24.95 6.56048 24.95 4.33068C24.95 2.10087 24.4132 1.47653 23.1309 1.47653Z" fill="#006838"/>
<path d="M32.3448 5.48027V8.5128H30.7842V0.14856H34.134C35.8238 0.14856 36.8278 1.11976 36.8278 2.81441C36.8278 4.50906 35.8238 5.48027 34.134 5.48027H32.3448ZM33.9153 4.1523C34.8199 4.1523 35.2771 3.6766 35.2771 2.81441C35.2771 1.95222 34.8199 1.47653 33.9153 1.47653H32.3348V4.1622H33.9153V4.1523Z" fill="#006838"/>
<path d="M42.1657 6.68935C42.1259 5.82715 41.7283 5.47038 40.7939 5.47038H39.3526V8.50292H37.792V0.138672H41.1518C42.9112 0.138672 43.8455 1.08015 43.8455 2.69552C43.8455 3.79555 43.3585 4.50909 42.3843 4.79648C43.269 4.93523 43.6368 5.47038 43.6964 6.57042L43.766 7.72992C43.7859 8.04704 43.8356 8.30471 43.9151 8.49301H42.3446C42.275 8.31463 42.2253 8.04705 42.2154 7.74974L42.1557 6.66952L42.1657 6.68935ZM40.9033 4.15232C41.7581 4.15232 42.2949 3.79555 42.2949 2.81444C42.2949 1.83332 41.768 1.47655 40.9033 1.47655H39.3526V4.16223H40.9033V4.15232Z" fill="#006838"/>
<path d="M45.0391 0.148584H50.1483V1.46664H46.5997V3.56762H49.7209V4.87577H46.5997V7.18486H50.2079V8.50292H45.049V0.138672L45.0391 0.148584Z" fill="#006838"/>
<path d="M54.0844 8.66155C52.2157 8.66155 51.1123 7.62098 51.1123 6.14435V6.00561H52.663V6.18399C52.663 6.87771 53.1997 7.3534 54.0844 7.3534C54.9691 7.3534 55.5058 6.87771 55.5058 6.18399C55.5058 5.56956 55.1182 5.14342 54.3329 4.98485L53.319 4.77674C51.9572 4.49925 51.1222 3.75598 51.1222 2.38837C51.1222 1.02075 52.0765 0 53.9353 0C55.7941 0 56.7583 1.10004 56.7583 2.37846V2.49738H55.1977V2.37846C55.1977 1.75412 54.7504 1.30815 53.9353 1.30815C53.1202 1.30815 52.6729 1.75412 52.6729 2.37846C52.6729 3.00281 53.0407 3.31002 53.8458 3.4785L54.8498 3.68661C56.2514 3.97401 57.0565 4.78665 57.0565 6.12453C57.0565 7.60116 55.9631 8.65164 54.0844 8.65164V8.66155Z" fill="#006838"/>
<path d="M58.6764 1.17936C59.2032 0.446 60.0183 0.00994873 61.2508 0.00994873C63.219 0.00994873 64.4019 1.219 64.4814 2.98302H62.9307C62.881 1.97218 62.2846 1.34783 61.2409 1.34783C60.6246 1.34783 60.1873 1.57577 59.9189 1.98209C59.6107 2.43796 59.4616 3.08212 59.4616 4.34072C59.4616 5.59932 59.6107 6.2534 59.9189 6.71918C60.1972 7.1255 60.6246 7.35344 61.2409 7.35344C62.2846 7.35344 62.8711 6.72909 62.9307 5.71825H64.4814C64.3919 7.48227 63.219 8.68141 61.2508 8.68141C60.0183 8.68141 59.2032 8.24536 58.6764 7.52191C58.0601 6.66963 57.9209 5.52004 57.9209 4.35063C57.9209 3.18123 58.0601 2.06137 58.6764 1.19918V1.17936Z" fill="#006838"/>
<path d="M69.9694 6.68935C69.9296 5.82715 69.532 5.47038 68.5976 5.47038H67.1563V8.50292H65.5957V0.138672H68.9555C70.7149 0.138672 71.6492 1.08015 71.6492 2.69552C71.6492 3.79555 71.1622 4.50909 70.188 4.79648C71.0727 4.93523 71.4405 5.47038 71.5001 6.57042L71.5697 7.72992C71.5896 8.04704 71.6393 8.30471 71.7188 8.49301H70.1483C70.0787 8.31463 70.029 8.04705 70.0191 7.74974L69.9594 6.66952L69.9694 6.68935ZM68.707 4.15232C69.5618 4.15232 70.0986 3.79555 70.0986 2.81444C70.0986 1.83332 69.5718 1.47655 68.707 1.47655H67.1563V4.16223H68.707V4.15232Z" fill="#006838"/>
<path d="M74.3917 8.5128H72.8311V0.14856H74.3917V8.5128Z" fill="#006838"/>
<path d="M77.3047 5.48027V8.5128H75.7441V0.14856H79.094C80.7838 0.14856 81.7877 1.11976 81.7877 2.81441C81.7877 4.50906 80.7838 5.48027 79.094 5.48027H77.3047ZM78.8852 4.1523C79.7898 4.1523 80.247 3.6766 80.247 2.81441C80.247 1.95222 79.7898 1.47653 78.8852 1.47653H77.3047V4.1622H78.8852V4.1523Z" fill="#006838"/>
<path d="M82.2354 0.14856H88.3287V1.46662H86.0623V8.5029H84.5017V1.46662H82.2354V0.14856Z" fill="#006838"/>
<path d="M90.7149 8.5128H89.1543V0.14856H90.7149V8.5128Z" fill="#006838"/>
<path d="M97.7822 7.50209C97.2554 8.23545 96.4403 8.66159 95.2176 8.66159C93.995 8.66159 93.17 8.22554 92.6431 7.50209C92.0269 6.64981 91.8877 5.50022 91.8877 4.33081C91.8877 3.1614 92.0269 2.04155 92.6431 1.17936C93.17 0.446 93.9851 0.00994873 95.2176 0.00994873C96.4502 0.00994873 97.2554 0.45591 97.7822 1.17936C98.3985 2.03164 98.5377 3.17131 98.5377 4.33081C98.5377 5.49031 98.3985 6.64981 97.7822 7.50209ZM96.5297 1.97217C96.2514 1.56585 95.824 1.33792 95.2176 1.33792C94.6113 1.33792 94.164 1.56585 93.8956 1.97217C93.5875 2.42804 93.4384 3.07221 93.4384 4.33081C93.4384 5.58941 93.5875 6.24349 93.8956 6.70927C94.1739 7.11559 94.6014 7.34352 95.2176 7.34352C95.8339 7.34352 96.2614 7.11559 96.5297 6.70927C96.8478 6.24349 96.987 5.60923 96.987 4.33081C96.987 3.05239 96.8478 2.42804 96.5297 1.97217Z" fill="#006838"/>
<path d="M101.231 2.83424V8.5128H99.6904V0.14856H101.281L104.233 5.83704V0.14856H105.774V8.5128H104.183L101.231 2.83424Z" fill="#006838"/>
</svg>
