<svg width="375" height="812" viewBox="0 0 375 812" fill="none" xmlns="http://www.w3.org/2000/svg">
<rect width="375" height="812" fill="white"/>
<path d="M33.776 49.416H22.38V36.424H35.176V39.728H26.188V46.112H34.812C36.94 46.112 38.172 45.86 39.04 45.216V36.116H42.876V41.632H46.432V44.992H42.876V50.788H39.04V48.324C38.144 49.052 36.632 49.416 33.776 49.416ZM23.472 56.752C23.472 55.1 24.172 53.868 25.348 53C27.196 51.628 30.192 51.124 33.468 51.124C36.744 51.124 39.74 51.628 41.588 53C42.764 53.868 43.464 55.1 43.464 56.752C43.464 58.404 42.764 59.636 41.588 60.504C39.74 61.876 36.744 62.38 33.468 62.38C30.192 62.38 27.196 61.876 25.348 60.504C24.172 59.636 23.472 58.404 23.472 56.752ZM27.308 56.752C27.308 57.368 27.588 57.844 28.148 58.208C29.184 58.88 31.116 59.104 33.468 59.104C35.848 59.104 37.752 58.88 38.816 58.208C39.348 57.844 39.628 57.368 39.628 56.752C39.628 56.164 39.348 55.688 38.816 55.324C37.752 54.624 35.848 54.428 33.468 54.428C31.116 54.428 29.184 54.624 28.148 55.324C27.588 55.688 27.308 56.164 27.308 56.752ZM57.8549 40.456C57.8549 44.992 59.9549 47.008 63.2309 47.988V51.376C60.1509 50.816 57.4349 49.332 55.9789 47.372C54.5789 49.416 51.8629 51.04 48.6709 51.656V48.268C52.0589 47.26 54.0189 44.796 54.0189 40.456V36.256H57.8549V40.456ZM66.5909 54.148V36.116H70.4269V54.148H66.5909ZM51.0509 61.932V52.832H54.8869V58.6H70.8749V61.932H51.0509ZM76.7258 44.376C76.7258 41.464 77.5098 39.224 79.1898 37.796C80.3378 36.816 82.0178 36.256 83.8098 36.256C85.6018 36.256 87.2818 36.816 88.4298 37.796C90.1098 39.224 90.9218 41.464 90.9218 44.376C90.9218 47.288 90.1098 49.528 88.4298 50.984C87.2818 51.964 85.6018 52.496 83.8098 52.496C82.0178 52.496 80.3378 51.964 79.1898 50.984C77.5098 49.528 76.7258 47.288 76.7258 44.376ZM80.5338 44.376C80.5338 46.14 80.8698 47.624 81.7098 48.436C82.2138 48.94 82.9698 49.164 83.8098 49.164C84.6498 49.164 85.4058 48.94 85.9098 48.436C86.7498 47.624 87.0858 46.14 87.0858 44.376C87.0858 42.612 86.7498 41.156 85.9098 40.344C85.4058 39.84 84.6498 39.588 83.8098 39.588C82.9698 39.588 82.2138 39.84 81.7098 40.344C80.8698 41.156 80.5338 42.612 80.5338 44.376ZM93.4418 61.82V59.16C92.6018 60 90.6978 60.42 88.2898 60.42H75.8858V57.088H89.0178C91.0898 57.088 92.6298 56.752 93.4418 56.024V36.116H97.2778V61.82H93.4418ZM111.555 60.112V36.564H124.183V60.112H111.555ZM120.403 39.896H115.363V56.78H120.403V39.896ZM131.743 46.308H135.607V49.612H131.743V61.82H127.907V36.116H131.743V46.308ZM138.798 41.184C138.798 39.7 139.386 38.636 140.394 37.88C142.27 36.508 145.49 36.116 149.214 36.116C152.938 36.116 156.158 36.508 158.034 37.88C159.042 38.636 159.63 39.7 159.63 41.184C159.63 42.64 159.042 43.732 158.034 44.46C156.158 45.86 152.938 46.252 149.214 46.252C145.49 46.252 142.27 45.86 140.394 44.46C139.386 43.732 138.798 42.64 138.798 41.184ZM142.634 41.184C142.634 41.576 142.802 41.884 143.166 42.136C144.146 42.836 146.358 43.004 149.214 43.004C152.07 43.004 154.282 42.836 155.262 42.136C155.626 41.884 155.794 41.576 155.794 41.184C155.794 40.792 155.626 40.456 155.262 40.232C154.282 39.532 152.07 39.336 149.214 39.336C146.358 39.336 144.146 39.532 143.166 40.232C142.802 40.456 142.634 40.792 142.634 41.184ZM137.622 47.568H160.75V50.816H137.622V47.568ZM139.246 62.1V52.748H159.126V62.1H139.246ZM155.29 55.968H143.082V58.852H155.29V55.968ZM165.677 40.316C165.677 39.196 166.097 38.356 166.909 37.74C168.477 36.508 171.613 36.116 176.093 36.116C180.601 36.116 183.709 36.508 185.305 37.74C186.089 38.356 186.509 39.196 186.509 40.316C186.509 41.408 186.089 42.248 185.305 42.892C183.709 44.124 180.601 44.516 176.093 44.516C171.613 44.516 168.477 44.124 166.909 42.892C166.097 42.248 165.677 41.408 165.677 40.316ZM169.513 40.316C169.513 40.512 169.625 40.708 169.877 40.848C170.633 41.296 172.733 41.408 176.093 41.408C179.453 41.408 181.553 41.296 182.337 40.848C182.561 40.708 182.673 40.512 182.673 40.316C182.673 40.092 182.561 39.924 182.337 39.756C181.553 39.308 179.453 39.196 176.093 39.196C172.733 39.196 170.633 39.308 169.877 39.756C169.625 39.924 169.513 40.092 169.513 40.316ZM164.501 45.804H187.629V48.996H164.501V45.804ZM169.961 58.992H186.593V62.1H166.125V54.708H182.169V53.504H166.125V50.396H186.005V57.788H169.961V58.992ZM200.114 42.276C200.114 40.12 201.038 38.384 202.55 37.292C203.726 36.452 205.21 35.976 206.918 35.976C208.626 35.976 210.138 36.452 211.286 37.292C212.798 38.384 213.722 40.12 213.722 42.276C213.722 44.432 212.798 46.168 211.286 47.288C210.138 48.128 208.626 48.604 206.918 48.604C205.21 48.604 203.726 48.128 202.55 47.288C201.038 46.168 200.114 44.432 200.114 42.276ZM203.866 42.276C203.866 43.312 204.258 44.152 204.874 44.712C205.378 45.16 206.078 45.44 206.918 45.44C207.758 45.44 208.458 45.16 208.962 44.712C209.578 44.152 209.97 43.312 209.97 42.276C209.97 41.268 209.578 40.428 208.962 39.868C208.458 39.42 207.758 39.14 206.918 39.14C206.078 39.14 205.378 39.42 204.874 39.868C204.258 40.428 203.866 41.268 203.866 42.276ZM217.446 48.66V36.116H221.282V48.66H217.446ZM205.322 59.16H212.21V62.1H201.682V54.456H207.506V52.72H201.682V49.78H211.174V57.368H205.322V59.16ZM221.282 49.78V62.24H217.502V53H212.07V49.78H221.282ZM244.353 39.924H227.777V36.564H248.189V45.636C248.189 48.52 247.937 51.6 247.489 53.812H243.681C244.073 51.74 244.353 48.856 244.353 46.448V39.924ZM226.629 57.368H233.937V45.86H237.773V57.368H249.477V60.7H226.629V57.368ZM30.976 82.456C30.976 86.992 33.076 89.008 36.352 89.988V93.376C33.272 92.816 30.556 91.332 29.1 89.372C27.7 91.416 24.984 93.04 21.792 93.656V90.268C25.18 89.26 27.14 86.796 27.14 82.456V78.256H30.976V82.456ZM39.712 96.148V85.928H34.532V82.624H39.712V78.116H43.548V96.148H39.712ZM24.172 103.932V94.832H28.008V100.6H43.996V103.932H24.172ZM49.5669 78.424H62.1949V80.412H66.5909V78.116H70.4269V93.096H66.5909V89.372H62.1949V91.416H49.5669V78.424ZM62.1949 83.66V86.152H66.5909V83.66H62.1949ZM53.3189 81.7V88.14H58.4709V81.7H53.3189ZM50.7709 98.752C50.7709 96.904 51.7229 95.588 53.1509 94.72C55.1669 93.488 58.1349 93.124 60.8789 93.124C63.6509 93.124 66.6189 93.488 68.6069 94.72C70.0629 95.588 71.0149 96.904 71.0149 98.752C71.0149 100.6 70.0629 101.944 68.6069 102.812C66.6189 104.016 63.6509 104.38 60.8789 104.38C58.1349 104.38 55.1669 104.016 53.1509 102.812C51.7229 101.944 50.7709 100.6 50.7709 98.752ZM54.6069 98.752C54.6069 99.396 54.9429 99.844 55.5589 100.208C56.7629 100.88 58.8909 101.104 60.8789 101.104C62.8949 101.104 65.0229 100.88 66.2269 100.208C66.8149 99.844 67.1789 99.396 67.1789 98.752C67.1789 98.136 66.8149 97.688 66.2269 97.324C65.0229 96.624 62.8949 96.428 60.8789 96.428C58.8909 96.428 56.7629 96.624 55.5589 97.324C54.9429 97.688 54.6069 98.136 54.6069 98.752ZM84.4538 81.252C84.4538 85.788 86.5258 87.832 89.8018 88.784V92.172C86.7218 91.612 84.0338 90.128 82.5498 88.168C81.1498 90.212 78.4618 91.836 75.2418 92.452V89.092C78.6298 88.056 80.6178 85.592 80.6178 81.252V78.256H84.4538V81.252ZM96.6338 83.632H100.19V86.992H96.6338V92.788H92.7978V78.116H96.6338V83.632ZM77.2298 98.752C77.2298 97.1 77.9298 95.868 79.1058 95C80.9538 93.628 83.9498 93.124 87.2258 93.124C90.5018 93.124 93.4978 93.628 95.3458 95C96.5218 95.868 97.2218 97.1 97.2218 98.752C97.2218 100.404 96.5218 101.636 95.3458 102.504C93.4978 103.876 90.5018 104.38 87.2258 104.38C83.9498 104.38 80.9538 103.876 79.1058 102.504C77.9298 101.636 77.2298 100.404 77.2298 98.752ZM81.0658 98.752C81.0658 99.368 81.3458 99.844 81.9058 100.208C82.9418 100.88 84.8738 101.104 87.2258 101.104C89.6058 101.104 91.5098 100.88 92.5738 100.208C93.1058 99.844 93.3858 99.368 93.3858 98.752C93.3858 98.164 93.1058 97.688 92.5738 97.324C91.5098 96.624 89.6058 96.428 87.2258 96.428C84.8738 96.428 82.9418 96.624 81.9058 97.324C81.3458 97.688 81.0658 98.164 81.0658 98.752ZM103.605 86.376C103.605 83.464 104.389 81.224 106.069 79.796C107.217 78.816 108.897 78.256 110.689 78.256C112.481 78.256 114.161 78.816 115.309 79.796C116.989 81.224 117.801 83.464 117.801 86.376C117.801 89.288 116.989 91.528 115.309 92.984C114.161 93.964 112.481 94.496 110.689 94.496C108.897 94.496 107.217 93.964 106.069 92.984C104.389 91.528 103.605 89.288 103.605 86.376ZM107.413 86.376C107.413 88.14 107.749 89.624 108.589 90.436C109.093 90.94 109.849 91.164 110.689 91.164C111.529 91.164 112.285 90.94 112.789 90.436C113.629 89.624 113.965 88.14 113.965 86.376C113.965 84.612 113.629 83.156 112.789 82.344C112.285 81.84 111.529 81.588 110.689 81.588C109.849 81.588 109.093 81.84 108.589 82.344C107.749 83.156 107.413 84.612 107.413 86.376ZM120.321 103.82V101.16C119.481 102 117.577 102.42 115.169 102.42H102.765V99.088H115.897C117.969 99.088 119.509 98.752 120.321 98.024V78.116H124.157V103.82H120.321ZM152.35 78.564V81.896H147.198V87.664C147.198 94.888 149.662 97.24 152.574 98.584V102.112C149.494 101.216 146.694 99.06 145.294 96.652C143.894 99.06 141.094 101.216 138.014 102.112V98.584C140.926 97.24 143.362 94.888 143.362 87.664V81.896H138.294V78.564H152.35ZM159.266 103.82H155.43V78.116H159.266V103.82ZM168.533 77.36H172.369V80.804H176.009V84.136H164.753V80.804H168.533V77.36ZM165.257 94.02C165.257 90.436 165.873 87.748 167.441 86.404C168.225 85.76 169.233 85.396 170.521 85.396C171.809 85.396 172.817 85.76 173.601 86.404C174.441 87.132 175.029 88.252 175.365 89.708V86.74H177.717V78.256H181.441V103.512H177.717V97.548H175.533C175.197 99.368 174.609 100.796 173.601 101.636C172.817 102.28 171.809 102.644 170.521 102.644C169.233 102.644 168.225 102.28 167.441 101.636C165.873 100.292 165.257 97.604 165.257 94.02ZM175.449 90.072C175.673 91.22 175.785 92.536 175.785 94.02V94.244H177.717V90.072H175.449ZM168.925 94.02C168.925 96.792 169.177 98.388 169.737 99.06C169.961 99.284 170.213 99.424 170.521 99.424C170.829 99.424 171.081 99.284 171.305 99.06C171.865 98.388 172.117 96.792 172.117 94.02C172.117 91.276 171.865 89.652 171.305 88.98C171.081 88.756 170.829 88.616 170.521 88.616C170.213 88.616 169.961 88.756 169.737 88.98C169.177 89.652 168.925 91.276 168.925 94.02ZM182.785 103.82V78.116H186.509V103.82H182.785ZM196.644 91.836H213.36V95.168H204.904V99.368H214.368V102.7H191.52V99.368H201.096V95.168H192.808V85.144H209.244V81.896H192.808V78.564H213.08V88.476H196.644V91.836ZM36.604 123.112V126.444H31.452V129.664C31.452 136.888 33.916 139.24 36.828 140.584V144.112C33.748 143.216 30.948 141.06 29.548 138.652C28.148 141.06 25.348 143.216 22.268 144.112V140.584C25.18 139.24 27.616 136.888 27.616 129.664V126.444H22.548V123.112H27.616V119.36H31.452V123.112H36.604ZM43.52 145.82H39.684V133.976H34.364V130.672H39.684V120.116H43.52V145.82ZM58.3029 124.26V120.424H62.0549V134.004H49.2589V120.424H53.0109V124.26H58.3029ZM58.3029 127.508H53.0109V130.756H58.3029V127.508ZM69.7549 125.772H73.3109V129.132H69.7549V135.096H65.9189V120.116H69.7549V125.772ZM50.3509 140.948C50.3509 139.072 51.1909 137.784 52.5909 136.944C54.4109 135.852 57.2389 135.488 60.3469 135.488C63.4549 135.488 66.2829 135.852 68.1029 136.944C69.5029 137.784 70.3429 139.072 70.3429 140.948C70.3429 142.796 69.5029 144.084 68.1029 144.924C66.2829 146.016 63.4549 146.38 60.3469 146.38C57.2389 146.38 54.4109 146.016 52.5909 144.924C51.1909 144.084 50.3509 142.796 50.3509 140.948ZM54.1869 140.948C54.1869 141.48 54.4389 141.928 54.9429 142.264C55.9509 142.88 57.8269 143.132 60.3469 143.132C62.8669 143.132 64.7429 142.88 65.7509 142.264C66.2549 141.928 66.5069 141.48 66.5069 140.948C66.5069 140.388 66.2549 139.94 65.7509 139.604C64.7429 138.988 62.8669 138.736 60.3469 138.736C57.8269 138.736 55.9509 138.988 54.9429 139.604C54.4389 139.94 54.1869 140.388 54.1869 140.948ZM80.8978 123.924V132.044H97.5858V135.404H77.0618V120.564H97.3338V123.924H80.8978ZM75.7738 141.368H98.6218V144.7H75.7738V141.368ZM107.133 130.868H116.065C118.221 130.868 119.481 130.56 120.349 129.944V120.116H124.185V134.704H120.349V132.884C119.481 133.612 117.913 134.004 115.001 134.004H103.325V125.604H112.453V123.56H103.325V120.424H116.261V128.74H107.133V130.868ZM120.349 135.628H124.185V146.1H104.809V135.628H108.645V137.868H120.349V135.628ZM108.645 141.088V142.88H120.349V141.088H108.645ZM142.048 144.112H130.344V120.424H134.152V140.78H142.776C144.848 140.78 146.388 140.444 147.2 139.744V120.116H151.036V145.82H147.2V142.852C146.36 143.692 144.456 144.112 142.048 144.112ZM168.283 144.112H157.083V120.564H169.711V123.896H160.891V140.78H169.039C171.111 140.78 172.623 140.444 173.435 139.744V120.116H177.271V130.308H181.135V133.612H177.271V145.82H173.435V142.852C172.595 143.692 170.719 144.112 168.283 144.112ZM187.741 139.856V144.056H183.513V139.856H187.741Z" fill="#006838"/>
<rect x="10" y="682" width="355" height="60" rx="30" fill="#006838"/>
<path d="M151.243 699.792V702.6H147.115V703.896C147.115 707.664 148.819 709.224 151.651 709.824V712.728C149.035 712.344 146.779 711.192 145.531 709.464C144.211 711.192 141.907 712.656 139.291 712.992V710.088C142.147 709.488 143.827 707.712 143.827 703.896V702.6H139.699V699.792H151.243ZM154.291 714.984V699.528H157.579V714.984H154.291ZM140.971 721.656V713.856H144.259V718.8H157.963V721.656H140.971ZM172.242 711.96H162.474V699.792H173.442V702.624H165.738V709.128H173.13C174.954 709.128 176.01 708.888 176.754 708.36V699.528H180.042V705.288H183.09V708.144H180.042V714.984H176.754V711.024C175.986 711.648 174.69 711.96 172.242 711.96ZM166.938 718.8H180.426V721.656H163.65V713.856H166.938V718.8ZM198.423 715.416C197.295 717.576 194.703 719.328 192.063 720.096V717.072C194.607 715.92 196.791 713.904 196.791 707.712V699.792H200.079V707.712C200.079 713.904 202.263 715.92 204.783 717.072V720.096C202.143 719.328 199.575 717.552 198.423 715.416ZM210.687 721.56H207.399V699.528H210.687V721.56ZM227.174 699.792V702.6H223.022V702.984C223.022 706.776 224.726 708.336 227.582 708.936V711.816C224.966 711.432 222.686 710.28 221.438 708.576C220.118 710.28 217.814 711.744 215.198 712.08V709.176C218.054 708.6 219.734 706.824 219.734 702.984V702.6H215.606V699.792H227.174ZM233.174 704.52H236.222V707.376H233.174V712.32H229.886V699.528H233.174V704.52ZM233.174 713.352V721.92H229.886V716.184H216.542V713.352H233.174Z" fill="white"/>
<path d="M145.197 625.104C145.197 626.224 144.945 626.812 144.119 627.75L140.983 631.362H145.351V633.028H138.379V631.516L142.495 626.77C142.999 626.182 143.209 625.72 143.209 625.118C143.209 624.082 142.649 623.438 141.711 623.438C140.787 623.438 140.213 624.068 140.213 625.118V625.454H138.225V625.104C138.225 623.27 139.485 621.758 141.711 621.758C143.951 621.758 145.197 623.27 145.197 625.104ZM154.227 627.484C154.227 629.962 153.835 631.334 153.037 632.216C152.435 632.888 151.567 633.224 150.475 633.224C149.369 633.224 148.501 632.888 147.899 632.216C147.101 631.334 146.709 629.962 146.709 627.484C146.709 625.034 147.101 623.662 147.899 622.766C148.501 622.108 149.369 621.758 150.475 621.758C151.567 621.758 152.435 622.108 153.037 622.766C153.835 623.662 154.227 625.034 154.227 627.484ZM152.239 627.484C152.239 625.524 152.099 624.558 151.693 623.998C151.385 623.62 150.993 623.438 150.475 623.438C149.943 623.438 149.551 623.62 149.257 623.998C148.837 624.558 148.697 625.524 148.697 627.484C148.697 629.472 148.837 630.438 149.257 630.984C149.551 631.376 149.943 631.558 150.475 631.558C150.993 631.558 151.385 631.376 151.693 630.984C152.099 630.438 152.239 629.472 152.239 627.484ZM162.67 625.104C162.67 626.224 162.418 626.812 161.592 627.75L158.456 631.362H162.824V633.028H155.852V631.516L159.968 626.77C160.472 626.182 160.682 625.72 160.682 625.118C160.682 624.082 160.122 623.438 159.184 623.438C158.26 623.438 157.686 624.068 157.686 625.118V625.454H155.698V625.104C155.698 623.27 156.958 621.758 159.184 621.758C161.424 621.758 162.67 623.27 162.67 625.104ZM171.42 624.586H169.404C169.278 623.844 168.83 623.41 168.06 623.41C166.884 623.41 166.436 624.502 166.394 626.84C166.716 626.238 167.402 625.846 168.354 625.846C170.258 625.846 171.644 627.218 171.644 629.528C171.644 631.81 170.104 633.224 168.018 633.224C166.814 633.224 165.862 632.762 165.218 631.866C164.546 630.942 164.364 629.696 164.364 627.96C164.364 623.578 165.456 621.758 168.06 621.758C169.908 621.758 171.182 622.738 171.42 624.586ZM169.656 629.528C169.656 628.24 169.026 627.498 168.004 627.498C166.996 627.498 166.366 628.24 166.366 629.528C166.366 630.802 166.996 631.558 168.004 631.558C169.026 631.558 169.656 630.802 169.656 629.528ZM181.92 623.228C181.92 625.496 182.97 626.504 184.608 626.994V628.688C183.068 628.408 181.71 627.666 180.982 626.686C180.282 627.708 178.924 628.52 177.328 628.828V627.134C179.022 626.63 180.002 625.398 180.002 623.228V621.128H181.92V623.228ZM186.288 630.074V624.964H183.698V623.312H186.288V621.058H188.206V630.074H186.288ZM178.518 633.966V629.416H180.436V632.3H188.43V633.966H178.518ZM191.215 621.212H197.529V622.206H199.727V621.058H201.645V628.548H199.727V626.686H197.529V627.708H191.215V621.212ZM197.529 623.83V625.076H199.727V623.83H197.529ZM193.091 622.85V626.07H195.667V622.85H193.091ZM191.817 631.376C191.817 630.452 192.293 629.794 193.007 629.36C194.015 628.744 195.499 628.562 196.871 628.562C198.257 628.562 199.741 628.744 200.735 629.36C201.463 629.794 201.939 630.452 201.939 631.376C201.939 632.3 201.463 632.972 200.735 633.406C199.741 634.008 198.257 634.19 196.871 634.19C195.499 634.19 194.015 634.008 193.007 633.406C192.293 632.972 191.817 632.3 191.817 631.376ZM193.735 631.376C193.735 631.698 193.903 631.922 194.211 632.104C194.813 632.44 195.877 632.552 196.871 632.552C197.879 632.552 198.943 632.44 199.545 632.104C199.839 631.922 200.021 631.698 200.021 631.376C200.021 631.068 199.839 630.844 199.545 630.662C198.943 630.312 197.879 630.214 196.871 630.214C195.877 630.214 194.813 630.312 194.211 630.662C193.903 630.844 193.735 631.068 193.735 631.376ZM208.659 622.626C208.659 624.894 209.695 625.916 211.333 626.392V628.086C209.793 627.806 208.449 627.064 207.707 626.084C207.007 627.106 205.663 627.918 204.053 628.226V626.546C205.747 626.028 206.741 624.796 206.741 622.626V621.128H208.659V622.626ZM214.749 623.816H216.527V625.496H214.749V628.394H212.831V621.058H214.749V623.816ZM205.047 631.376C205.047 630.55 205.397 629.934 205.985 629.5C206.909 628.814 208.407 628.562 210.045 628.562C211.683 628.562 213.181 628.814 214.105 629.5C214.693 629.934 215.043 630.55 215.043 631.376C215.043 632.202 214.693 632.818 214.105 633.252C213.181 633.938 211.683 634.19 210.045 634.19C208.407 634.19 206.909 633.938 205.985 633.252C205.397 632.818 205.047 632.202 205.047 631.376ZM206.965 631.376C206.965 631.684 207.105 631.922 207.385 632.104C207.903 632.44 208.869 632.552 210.045 632.552C211.235 632.552 212.187 632.44 212.719 632.104C212.985 631.922 213.125 631.684 213.125 631.376C213.125 631.082 212.985 630.844 212.719 630.662C212.187 630.312 211.235 630.214 210.045 630.214C208.869 630.214 207.903 630.312 207.385 630.662C207.105 630.844 206.965 631.082 206.965 631.376ZM218.5 621.884H222.49V620.61H224.408V621.884H228.44V623.48H224.59C225.15 624.432 226.9 625.062 228.58 625.146V626.728C226.536 626.658 224.59 625.958 223.456 624.908C222.322 625.972 220.39 626.644 218.332 626.728V625.146C220.026 625.062 221.748 624.432 222.308 623.48H218.5V621.884ZM217.688 627.358H229.252V628.996H224.408V630.116H228.44V634.12H226.522V631.74H218.416V630.116H222.518V628.996H217.688V627.358ZM236.769 621.282V622.948H235.103V626.728C235.103 629.752 235.691 630.676 236.909 631.306V633.056C235.621 632.678 234.725 631.964 234.151 631.082C233.577 631.964 232.681 632.678 231.393 633.056V631.306C232.611 630.676 233.227 629.752 233.227 626.728V622.948H231.533V621.282H236.769ZM235.971 625.874H237.665V621.128H239.513V633.756H237.665V627.54H235.971V625.874ZM240.269 633.91V621.058H242.131V633.91H240.269Z" fill="#006838"/>
<path d="M82.2313 648.104C82.2313 649.224 81.9793 649.812 81.1533 650.75L78.0173 654.362H82.3853V656.028H75.4133V654.516L79.5293 649.77C80.0333 649.182 80.2433 648.72 80.2433 648.118C80.2433 647.082 79.6833 646.438 78.7453 646.438C77.8213 646.438 77.2473 647.068 77.2473 648.118V648.454H75.2593V648.104C75.2593 646.27 76.5193 644.758 78.7453 644.758C80.9853 644.758 82.2313 646.27 82.2313 648.104ZM91.2616 650.484C91.2616 652.962 90.8696 654.334 90.0716 655.216C89.4696 655.888 88.6016 656.224 87.5096 656.224C86.4036 656.224 85.5356 655.888 84.9336 655.216C84.1356 654.334 83.7436 652.962 83.7436 650.484C83.7436 648.034 84.1356 646.662 84.9336 645.766C85.5356 645.108 86.4036 644.758 87.5096 644.758C88.6016 644.758 89.4696 645.108 90.0716 645.766C90.8696 646.662 91.2616 648.034 91.2616 650.484ZM89.2736 650.484C89.2736 648.524 89.1336 647.558 88.7276 646.998C88.4196 646.62 88.0276 646.438 87.5096 646.438C86.9776 646.438 86.5856 646.62 86.2916 646.998C85.8716 647.558 85.7316 648.524 85.7316 650.484C85.7316 652.472 85.8716 653.438 86.2916 653.984C86.5856 654.376 86.9776 654.558 87.5096 654.558C88.0276 654.558 88.4196 654.376 88.7276 653.984C89.1336 653.438 89.2736 652.472 89.2736 650.484ZM99.7039 648.104C99.7039 649.224 99.4519 649.812 98.6259 650.75L95.4899 654.362H99.8579V656.028H92.8859V654.516L97.0019 649.77C97.5059 649.182 97.7159 648.72 97.7159 648.118C97.7159 647.082 97.1559 646.438 96.2179 646.438C95.2939 646.438 94.7199 647.068 94.7199 648.118V648.454H92.7319V648.104C92.7319 646.27 93.9919 644.758 96.2179 644.758C98.4579 644.758 99.7039 646.27 99.7039 648.104ZM108.454 647.586H106.438C106.312 646.844 105.864 646.41 105.094 646.41C103.918 646.41 103.47 647.502 103.428 649.84C103.75 649.238 104.436 648.846 105.388 648.846C107.292 648.846 108.678 650.218 108.678 652.528C108.678 654.81 107.138 656.224 105.052 656.224C103.848 656.224 102.896 655.762 102.252 654.866C101.58 653.942 101.398 652.696 101.398 650.96C101.398 646.578 102.49 644.758 105.094 644.758C106.942 644.758 108.216 645.738 108.454 647.586ZM106.69 652.528C106.69 651.24 106.06 650.498 105.038 650.498C104.03 650.498 103.4 651.24 103.4 652.528C103.4 653.802 104.03 654.558 105.038 654.558C106.06 654.558 106.69 653.802 106.69 652.528ZM121.95 652.878C121.95 654.838 120.508 656.224 118.03 656.224C115.566 656.224 114.11 654.852 114.11 652.892V652.71H116.154V652.948C116.154 653.872 116.868 654.502 118.03 654.502C119.192 654.502 119.906 653.872 119.906 652.948C119.906 652.136 119.388 651.576 118.352 651.366L117.008 651.086C115.216 650.722 114.11 649.728 114.11 647.922C114.11 646.2 115.37 644.758 117.82 644.758C120.27 644.758 121.544 646.214 121.544 647.908V648.062H119.486V647.908C119.486 647.082 118.898 646.494 117.82 646.494C116.728 646.494 116.154 647.082 116.154 647.908C116.154 648.734 116.644 649.14 117.708 649.364L119.038 649.644C120.886 650.022 121.95 651.1 121.95 652.878ZM123.344 656.028V644.954H130.092V646.704H125.402V649.49H129.518V651.226H125.402V654.278H130.162V656.028H123.344ZM140.155 650.484C140.155 652.038 139.973 653.55 139.161 654.684C138.461 655.65 137.383 656.224 135.773 656.224C134.149 656.224 133.071 655.65 132.371 654.684C131.559 653.55 131.377 652.038 131.377 650.484C131.377 648.944 131.559 647.446 132.371 646.312C133.071 645.346 134.149 644.758 135.773 644.758C137.383 644.758 138.461 645.346 139.161 646.312C139.973 647.446 140.155 648.944 140.155 650.484ZM138.111 650.484C138.111 648.818 137.929 647.964 137.509 647.362C137.145 646.83 136.571 646.522 135.773 646.522C134.961 646.522 134.387 646.83 134.023 647.362C133.617 647.964 133.421 648.818 133.421 650.484C133.421 652.178 133.617 653.018 134.023 653.634C134.387 654.166 134.961 654.474 135.773 654.474C136.571 654.474 137.145 654.166 137.509 653.634C137.929 653.018 138.111 652.178 138.111 650.484ZM147.614 656.028L143.722 648.51V656.028H141.692V644.954H143.792L147.684 652.486V644.954H149.714V656.028H147.614ZM162.12 656.028H160.314L157.626 649V656.028H155.624V644.954H157.808L161.224 653.844L164.626 644.954H166.81V656.028H164.808V649L162.12 656.028ZM168.598 656.028V644.954H175.346V646.704H170.656V649.49H174.772V651.226H170.656V654.278H175.416V656.028H168.598ZM183.197 650.484C183.197 647.558 182.483 646.704 180.789 646.704H178.941V654.278H180.789C182.497 654.278 183.197 653.438 183.197 650.484ZM185.241 650.484C185.241 653.34 184.597 656.028 180.943 656.028H176.883V644.954H180.943C184.625 644.954 185.241 647.712 185.241 650.484ZM188.84 644.954V656.028H186.782V644.954H188.84ZM189.937 646.704V644.954H197.987V646.704H194.991V656.028H192.933V646.704H189.937ZM199.651 656.028H197.537L201.121 644.954H203.473L207.057 656.028H204.943L204.271 653.76H200.309L199.651 656.028ZM203.767 652.024L202.297 646.984L200.813 652.024H203.767ZM206.617 646.704V644.954H214.667V646.704H211.671V656.028H209.613V646.704H206.617ZM217.81 644.954V656.028H215.752V644.954H217.81ZM228.134 650.484C228.134 652.038 227.952 653.55 227.14 654.684C226.44 655.65 225.362 656.224 223.752 656.224C222.128 656.224 221.05 655.65 220.35 654.684C219.538 653.55 219.356 652.038 219.356 650.484C219.356 648.944 219.538 647.446 220.35 646.312C221.05 645.346 222.128 644.758 223.752 644.758C225.362 644.758 226.44 645.346 227.14 646.312C227.952 647.446 228.134 648.944 228.134 650.484ZM226.09 650.484C226.09 648.818 225.908 647.964 225.488 647.362C225.124 646.83 224.55 646.522 223.752 646.522C222.94 646.522 222.366 646.83 222.002 647.362C221.596 647.964 221.4 648.818 221.4 650.484C221.4 652.178 221.596 653.018 222.002 653.634C222.366 654.166 222.94 654.474 223.752 654.474C224.55 654.474 225.124 654.166 225.488 653.634C225.908 653.018 226.09 652.178 226.09 650.484ZM235.592 656.028L231.7 648.51V656.028H229.67V644.954H231.77L235.662 652.486V644.954H237.692V656.028H235.592ZM243.602 656.028V644.954H250.266V646.704H245.66V649.644H249.776V651.38H245.66V656.028H243.602ZM251.559 656.028V644.954H258.307V646.704H253.617V649.49H257.733V651.226H253.617V654.278H258.377V656.028H251.559ZM267.432 652.878C267.432 654.838 265.99 656.224 263.512 656.224C261.048 656.224 259.592 654.852 259.592 652.892V652.71H261.636V652.948C261.636 653.872 262.35 654.502 263.512 654.502C264.674 654.502 265.388 653.872 265.388 652.948C265.388 652.136 264.87 651.576 263.834 651.366L262.49 651.086C260.698 650.722 259.592 649.728 259.592 647.922C259.592 646.2 260.852 644.758 263.302 644.758C265.752 644.758 267.026 646.214 267.026 647.908V648.062H264.968V647.908C264.968 647.082 264.38 646.494 263.302 646.494C262.21 646.494 261.636 647.082 261.636 647.908C261.636 648.734 262.126 649.14 263.19 649.364L264.52 649.644C266.368 650.022 267.432 651.1 267.432 652.878ZM267.853 646.704V644.954H275.903V646.704H272.907V656.028H270.849V646.704H267.853ZM279.047 644.954V656.028H276.989V644.954H279.047ZM284.834 653.69L287.48 644.954H289.594L286.01 656.028H283.658L280.074 644.954H282.188L284.834 653.69ZM291.13 656.028H289.016L292.6 644.954H294.952L298.536 656.028H296.422L295.75 653.76H291.788L291.13 656.028ZM295.246 652.024L293.776 646.984L292.292 652.024H295.246ZM299.561 656.028V644.954H301.619V654.278H306.379V656.028H299.561Z" fill="#006838"/>
<g clip-path="url(#clip0_138_2)">
<path d="M50.8098 368.096L47 371.905V420.643L50.8098 424.452H94.9783L98.788 420.643V371.905L94.9783 368.096H50.8098ZM95.8145 419.404L93.7393 421.479H52.0332L49.958 419.404V373.129L52.0332 371.054H93.7548L95.83 373.129V419.404H95.8145Z" fill="#006838"/>
<path d="M108.359 368.096L104.55 371.905V420.643L108.359 424.452H152.528L156.338 420.643V371.905L152.528 368.096H108.359ZM153.38 419.404L151.304 421.479H109.583L107.508 419.404V373.129L109.583 371.054H151.304L153.38 373.129V419.404Z" fill="#006838"/>
<path d="M165.909 368.096L162.099 371.905V420.643L165.909 424.452H210.077L213.887 420.643V371.905L210.077 368.096H165.909ZM210.929 419.404L208.854 421.479H167.132L165.057 419.404V373.129L167.132 371.054H208.854L210.929 373.129V419.404Z" fill="#006838"/>
<path d="M223.458 368.096L219.648 371.905V420.643L223.458 424.452H267.626L271.436 420.643V371.905L267.626 368.096H223.458ZM268.478 419.404L266.403 421.479H224.681L222.606 419.404V373.129L224.681 371.054H266.403L268.478 373.129V419.404Z" fill="#006838"/>
<path d="M325.191 368.096H281.022L277.213 371.905V420.643L281.022 424.452H325.191L329.001 420.643V371.905L325.191 368.096ZM326.027 419.404L323.952 421.479H282.23L280.155 419.404V373.129L282.23 371.054H323.952L326.027 373.129V419.404Z" fill="#006838"/>
<path d="M58.9253 409.492H75.3259V378.921H58.9253V409.492ZM63.8811 383.242H70.432V405.171H63.8811V383.242Z" fill="#006838"/>
<path d="M85.1445 378.333H80.1577V411.707H85.1445V395.848H90.1622V391.559H85.1445V378.333Z" fill="#006838"/>
<path d="M117.542 412.063H143.359V399.921H117.542V412.063ZM122.514 404.103H138.372V407.851H122.514V404.103Z" fill="#006838"/>
<path d="M119.029 389.158C121.461 390.97 125.642 391.481 130.49 391.481C135.337 391.481 139.503 390.97 141.934 389.158C143.251 388.213 144.01 386.789 144.01 384.899C144.01 383.01 143.251 381.585 141.934 380.609C139.503 378.828 135.322 378.317 130.49 378.317C125.658 378.317 121.476 378.828 119.029 380.609C117.713 381.585 116.954 382.979 116.954 384.899C116.954 386.82 117.713 388.213 119.029 389.158ZM122.622 383.676C123.892 382.762 126.773 382.514 130.474 382.514C134.175 382.514 137.056 382.762 138.326 383.676C138.806 383.97 139.023 384.404 139.023 384.915C139.023 385.426 138.806 385.829 138.326 386.154C137.056 387.067 134.175 387.284 130.474 387.284C126.773 387.284 123.892 387.067 122.622 386.154C122.158 385.829 121.925 385.426 121.925 384.915C121.925 384.404 122.142 383.97 122.622 383.676Z" fill="#006838"/>
<path d="M145.466 393.2H115.437V397.412H145.466V393.2Z" fill="#006838"/>
<path d="M196.108 392.039H189.201V396.328H196.108V411.707H201.079V378.333H196.108V392.039Z" fill="#006838"/>
<path d="M185.421 390.722V386.541H192.111V382.22H185.421V377.341H180.434V382.22H173.852V386.541H180.434V390.722C180.434 400.107 177.275 403.158 173.496 404.908V409.492C177.492 408.33 181.131 405.527 182.943 402.399C184.755 405.527 188.394 408.33 192.39 409.492V404.908C188.611 403.158 185.405 400.107 185.405 390.722H185.421Z" fill="#006838"/>
<path d="M257.76 378.333H252.789V397.784H257.76V390.041H262.375V385.674H257.76V378.333Z" fill="#006838"/>
<path d="M247.772 378.735H242.894V383.722H236.018V378.735H231.139V396.375H247.757V378.735H247.772ZM242.894 392.147H236.018V387.935H242.894V392.147Z" fill="#006838"/>
<path d="M255.624 400.185C253.254 398.76 249.584 398.295 245.557 398.295C241.531 398.295 237.845 398.76 235.491 400.185C233.679 401.269 232.579 402.941 232.579 405.388C232.579 407.835 233.663 409.461 235.491 410.545C237.86 411.97 241.531 412.435 245.557 412.435C249.584 412.435 253.27 411.97 255.624 410.545C257.435 409.461 258.535 407.789 258.535 405.388C258.535 402.988 257.451 401.284 255.624 400.185ZM252.557 407.092C251.241 407.897 248.809 408.222 245.542 408.222C242.274 408.222 239.827 407.897 238.526 407.092C237.876 406.658 237.55 406.07 237.55 405.388C237.55 404.66 237.876 404.072 238.526 403.638C239.842 402.833 242.274 402.508 245.542 402.508C248.809 402.508 251.256 402.833 252.557 403.638C253.208 404.072 253.533 404.66 253.533 405.388C253.533 406.116 253.208 406.658 252.557 407.092Z" fill="#006838"/>
<path d="M297.98 393.386C299.869 396.003 303.292 397.753 307.257 398.326V393.928C302.967 393.014 300.38 390.66 300.38 384.946V382.979H306.637V378.72H289.152V382.979H295.409V384.946C295.409 390.722 292.869 393.417 288.533 394.331V398.729C292.498 398.218 295.982 396.003 297.98 393.386Z" fill="#006838"/>
<path d="M304.886 390.072H311.236V401.749H316.223V378.333H311.236V385.782H304.886V390.072Z" fill="#006838"/>
<path d="M296.044 400.03H291.072V411.846H316.811V407.525H296.044V400.03Z" fill="#006838"/>
<path d="M221.815 299.179C213.592 290.94 200.195 290.94 191.956 299.179L187.992 303.144L184.027 299.179C175.804 290.94 162.408 290.94 154.169 299.179C150.188 303.159 147.989 308.471 147.989 314.109C147.989 319.746 150.188 325.042 154.169 329.038L173.062 347.932C177.182 352.051 182.587 354.111 187.992 354.111C193.397 354.111 198.802 352.051 202.921 347.932L221.815 329.038C225.795 325.058 227.994 319.746 227.994 314.109C227.994 308.471 225.795 303.175 221.815 299.179ZM157.034 326.173C153.812 322.952 152.031 318.662 152.031 314.109C152.031 309.555 153.812 305.266 157.034 302.044C163.693 295.385 174.518 295.385 181.178 302.044L185.142 306.009L176.346 314.805L173.078 318.073C169.098 322.053 166.899 327.365 166.899 333.003C166.899 334.118 167.007 335.233 167.177 336.317L157.034 326.173ZM203.339 341.799L200.072 345.067C193.412 351.726 182.587 351.726 175.928 345.067C172.706 341.846 170.925 337.556 170.925 333.003C170.925 328.449 172.706 324.16 175.928 320.938L179.195 317.671C182.417 314.449 186.706 312.668 191.26 312.668C195.813 312.668 200.103 314.449 203.324 317.671C206.545 320.892 208.326 325.182 208.326 329.735C208.326 334.288 206.545 338.578 203.324 341.799H203.339ZM218.965 326.173L212.089 333.049C212.26 331.965 212.368 330.865 212.368 329.735C212.368 324.098 210.169 318.801 206.189 314.805C201.233 309.85 194.388 307.898 187.945 308.92L194.837 302.029C198.058 298.808 202.348 297.027 206.901 297.027C211.454 297.027 215.744 298.808 218.965 302.029C222.187 305.25 223.968 309.54 223.968 314.093C223.968 318.646 222.187 322.936 218.965 326.157V326.173Z" fill="#006838"/>
<path d="M152.775 324.656C152.775 325.353 153.332 325.91 154.029 325.91C154.168 325.91 154.308 325.879 154.447 325.833C153.936 325.213 153.472 324.578 153.053 323.928C152.899 324.129 152.79 324.377 152.79 324.656H152.775Z" fill="#006838"/>
<path d="M221.97 325.91C222.667 325.91 223.224 325.353 223.224 324.656C223.224 324.377 223.116 324.129 222.961 323.928C222.543 324.578 222.078 325.213 221.567 325.833C221.691 325.879 221.83 325.91 221.985 325.91H221.97Z" fill="#006838"/>
<path d="M158.397 329.905L157.344 328.852C157.421 329.41 157.839 329.828 158.397 329.905Z" fill="#006838"/>
<path d="M218.655 328.852L217.602 329.905C218.159 329.828 218.577 329.41 218.655 328.852Z" fill="#006838"/>
<path d="M154.029 321.883C153.332 321.883 152.775 321.326 152.775 320.629C152.775 319.932 153.332 319.374 154.029 319.374C154.726 319.374 155.284 319.932 155.284 320.629C155.284 321.326 154.726 321.883 154.029 321.883ZM154.029 317.857C153.332 317.857 152.775 317.299 152.775 316.602C152.775 315.905 153.332 315.348 154.029 315.348C154.726 315.348 155.284 315.905 155.284 316.602C155.284 317.299 154.726 317.857 154.029 317.857ZM154.029 313.83C153.332 313.83 152.775 313.273 152.775 312.576C152.775 311.879 153.332 311.321 154.029 311.321C154.726 311.321 155.284 311.879 155.284 312.576C155.284 313.273 154.726 313.83 154.029 313.83ZM154.029 309.804C153.332 309.804 152.775 309.246 152.775 308.549C152.775 307.852 153.332 307.295 154.029 307.295C154.726 307.295 155.284 307.852 155.284 308.549C155.284 309.246 154.726 309.804 154.029 309.804ZM154.029 305.777C153.332 305.777 152.775 305.219 152.775 304.523C152.775 303.826 153.332 303.268 154.029 303.268C154.726 303.268 155.284 303.826 155.284 304.523C155.284 305.219 154.726 305.777 154.029 305.777ZM158.567 325.91C157.87 325.91 157.312 325.352 157.312 324.655C157.312 323.958 157.87 323.401 158.567 323.401C159.264 323.401 159.821 323.958 159.821 324.655C159.821 325.352 159.264 325.91 158.567 325.91ZM158.567 321.883C157.87 321.883 157.312 321.326 157.312 320.629C157.312 319.932 157.87 319.374 158.567 319.374C159.264 319.374 159.821 319.932 159.821 320.629C159.821 321.326 159.264 321.883 158.567 321.883ZM158.567 317.857C157.87 317.857 157.312 317.299 157.312 316.602C157.312 315.905 157.87 315.348 158.567 315.348C159.264 315.348 159.821 315.905 159.821 316.602C159.821 317.299 159.264 317.857 158.567 317.857ZM158.567 313.83C157.87 313.83 157.312 313.273 157.312 312.576C157.312 311.879 157.87 311.321 158.567 311.321C159.264 311.321 159.821 311.879 159.821 312.576C159.821 313.273 159.264 313.83 158.567 313.83ZM163.089 333.963C162.392 333.963 161.834 333.405 161.834 332.709C161.834 332.012 162.392 331.454 163.089 331.454C163.786 331.454 164.343 332.012 164.343 332.709C164.343 333.405 163.786 333.963 163.089 333.963ZM163.089 329.936C162.392 329.936 161.834 329.379 161.834 328.682C161.834 327.985 162.392 327.428 163.089 327.428C163.786 327.428 164.343 327.985 164.343 328.682C164.343 329.379 163.786 329.936 163.089 329.936ZM163.089 325.91C162.392 325.91 161.834 325.352 161.834 324.655C161.834 323.958 162.392 323.401 163.089 323.401C163.786 323.401 164.343 323.958 164.343 324.655C164.343 325.352 163.786 325.91 163.089 325.91ZM163.089 321.883C162.392 321.883 161.834 321.326 161.834 320.629C161.834 319.932 162.392 319.374 163.089 319.374C163.786 319.374 164.343 319.932 164.343 320.629C164.343 321.326 163.786 321.883 163.089 321.883ZM167.611 337.99C166.914 337.99 166.357 337.432 166.357 336.735C166.357 336.038 166.914 335.481 167.611 335.481C168.308 335.481 168.865 336.038 168.865 336.735C168.865 337.432 168.308 337.99 167.611 337.99ZM167.611 333.963C166.914 333.963 166.357 333.405 166.357 332.709C166.357 332.012 166.914 331.454 167.611 331.454C168.308 331.454 168.865 332.012 168.865 332.709C168.865 333.405 168.308 333.963 167.611 333.963ZM167.611 329.936C166.914 329.936 166.357 329.379 166.357 328.682C166.357 327.985 166.914 327.428 167.611 327.428C168.308 327.428 168.865 327.985 168.865 328.682C168.865 329.379 168.308 329.936 167.611 329.936ZM167.611 325.91C166.914 325.91 166.357 325.352 166.357 324.655C166.357 323.958 166.914 323.401 167.611 323.401C168.308 323.401 168.865 323.958 168.865 324.655C168.865 325.352 168.308 325.91 167.611 325.91ZM172.149 342.016C171.452 342.016 170.894 341.459 170.894 340.762C170.894 340.065 171.452 339.507 172.149 339.507C172.846 339.507 173.403 340.065 173.403 340.762C173.403 341.459 172.846 342.016 172.149 342.016ZM172.149 337.99C171.452 337.99 170.894 337.432 170.894 336.735C170.894 336.038 171.452 335.481 172.149 335.481C172.846 335.481 173.403 336.038 173.403 336.735C173.403 337.432 172.846 337.99 172.149 337.99ZM172.149 333.963C171.452 333.963 170.894 333.405 170.894 332.709C170.894 332.012 171.452 331.454 172.149 331.454C172.846 331.454 173.403 332.012 173.403 332.709C173.403 333.405 172.846 333.963 172.149 333.963ZM172.149 329.936C171.452 329.936 170.894 329.379 170.894 328.682C170.894 327.985 171.452 327.428 172.149 327.428C172.846 327.428 173.403 327.985 173.403 328.682C173.403 329.379 172.846 329.936 172.149 329.936ZM176.671 346.043C175.974 346.043 175.416 345.485 175.416 344.788C175.416 344.091 175.974 343.534 176.671 343.534C177.368 343.534 177.925 344.091 177.925 344.788C177.925 345.485 177.368 346.043 176.671 346.043ZM176.671 342.016C175.974 342.016 175.416 341.459 175.416 340.762C175.416 340.065 175.974 339.507 176.671 339.507C177.368 339.507 177.925 340.065 177.925 340.762C177.925 341.459 177.368 342.016 176.671 342.016ZM176.671 337.99C175.974 337.99 175.416 337.432 175.416 336.735C175.416 336.038 175.974 335.481 176.671 335.481C177.368 335.481 177.925 336.038 177.925 336.735C177.925 337.432 177.368 337.99 176.671 337.99ZM176.671 333.963C175.974 333.963 175.416 333.405 175.416 332.709C175.416 332.012 175.974 331.454 176.671 331.454C177.368 331.454 177.925 332.012 177.925 332.709C177.925 333.405 177.368 333.963 176.671 333.963ZM181.209 350.069C180.512 350.069 179.954 349.512 179.954 348.815C179.954 348.118 180.512 347.56 181.209 347.56C181.905 347.56 182.463 348.118 182.463 348.815C182.463 349.512 181.905 350.069 181.209 350.069ZM181.209 346.043C180.512 346.043 179.954 345.485 179.954 344.788C179.954 344.091 180.512 343.534 181.209 343.534C181.905 343.534 182.463 344.091 182.463 344.788C182.463 345.485 181.905 346.043 181.209 346.043ZM181.209 342.016C180.512 342.016 179.954 341.459 179.954 340.762C179.954 340.065 180.512 339.507 181.209 339.507C181.905 339.507 182.463 340.065 182.463 340.762C182.463 341.459 181.905 342.016 181.209 342.016ZM181.209 337.99C180.512 337.99 179.954 337.432 179.954 336.735C179.954 336.038 180.512 335.481 181.209 335.481C181.905 335.481 182.463 336.038 182.463 336.735C182.463 337.432 181.905 337.99 181.209 337.99ZM185.731 350.069C185.034 350.069 184.476 349.512 184.476 348.815C184.476 348.118 185.034 347.56 185.731 347.56C186.428 347.56 186.985 348.118 186.985 348.815C186.985 349.512 186.428 350.069 185.731 350.069ZM185.731 346.043C185.034 346.043 184.476 345.485 184.476 344.788C184.476 344.091 185.034 343.534 185.731 343.534C186.428 343.534 186.985 344.091 186.985 344.788C186.985 345.485 186.428 346.043 185.731 346.043ZM185.731 342.016C185.034 342.016 184.476 341.459 184.476 340.762C184.476 340.065 185.034 339.507 185.731 339.507C186.428 339.507 186.985 340.065 186.985 340.762C186.985 341.459 186.428 342.016 185.731 342.016ZM190.268 350.069C189.571 350.069 189.014 349.512 189.014 348.815C189.014 348.118 189.571 347.56 190.268 347.56C190.965 347.56 191.523 348.118 191.523 348.815C191.523 349.512 190.965 350.069 190.268 350.069ZM190.268 346.043C189.571 346.043 189.014 345.485 189.014 344.788C189.014 344.091 189.571 343.534 190.268 343.534C190.965 343.534 191.523 344.091 191.523 344.788C191.523 345.485 190.965 346.043 190.268 346.043ZM190.268 342.016C189.571 342.016 189.014 341.459 189.014 340.762C189.014 340.065 189.571 339.507 190.268 339.507C190.965 339.507 191.523 340.065 191.523 340.762C191.523 341.459 190.965 342.016 190.268 342.016ZM194.79 350.069C194.094 350.069 193.536 349.512 193.536 348.815C193.536 348.118 194.094 347.56 194.79 347.56C195.487 347.56 196.045 348.118 196.045 348.815C196.045 349.512 195.487 350.069 194.79 350.069ZM194.79 346.043C194.094 346.043 193.536 345.485 193.536 344.788C193.536 344.091 194.094 343.534 194.79 343.534C195.487 343.534 196.045 344.091 196.045 344.788C196.045 345.485 195.487 346.043 194.79 346.043ZM194.79 342.016C194.094 342.016 193.536 341.459 193.536 340.762C193.536 340.065 194.094 339.507 194.79 339.507C195.487 339.507 196.045 340.065 196.045 340.762C196.045 341.459 195.487 342.016 194.79 342.016ZM194.79 337.99C194.094 337.99 193.536 337.432 193.536 336.735C193.536 336.038 194.094 335.481 194.79 335.481C195.487 335.481 196.045 336.038 196.045 336.735C196.045 337.432 195.487 337.99 194.79 337.99ZM199.313 346.043C198.616 346.043 198.058 345.485 198.058 344.788C198.058 344.091 198.616 343.534 199.313 343.534C200.01 343.534 200.567 344.091 200.567 344.788C200.567 345.485 200.01 346.043 199.313 346.043ZM199.313 342.016C198.616 342.016 198.058 341.459 198.058 340.762C198.058 340.065 198.616 339.507 199.313 339.507C200.01 339.507 200.567 340.065 200.567 340.762C200.567 341.459 200.01 342.016 199.313 342.016ZM199.313 337.99C198.616 337.99 198.058 337.432 198.058 336.735C198.058 336.038 198.616 335.481 199.313 335.481C200.01 335.481 200.567 336.038 200.567 336.735C200.567 337.432 200.01 337.99 199.313 337.99ZM199.313 333.963C198.616 333.963 198.058 333.405 198.058 332.709C198.058 332.012 198.616 331.454 199.313 331.454C200.01 331.454 200.567 332.012 200.567 332.709C200.567 333.405 200.01 333.963 199.313 333.963ZM203.85 342.016C203.153 342.016 202.596 341.459 202.596 340.762C202.596 340.065 203.153 339.507 203.85 339.507C204.547 339.507 205.105 340.065 205.105 340.762C205.105 341.459 204.547 342.016 203.85 342.016ZM203.85 337.99C203.153 337.99 202.596 337.432 202.596 336.735C202.596 336.038 203.153 335.481 203.85 335.481C204.547 335.481 205.105 336.038 205.105 336.735C205.105 337.432 204.547 337.99 203.85 337.99ZM203.85 333.963C203.153 333.963 202.596 333.405 202.596 332.709C202.596 332.012 203.153 331.454 203.85 331.454C204.547 331.454 205.105 332.012 205.105 332.709C205.105 333.405 204.547 333.963 203.85 333.963ZM203.85 329.936C203.153 329.936 202.596 329.379 202.596 328.682C202.596 327.985 203.153 327.428 203.85 327.428C204.547 327.428 205.105 327.985 205.105 328.682C205.105 329.379 204.547 329.936 203.85 329.936ZM208.372 337.99C207.676 337.99 207.118 337.432 207.118 336.735C207.118 336.038 207.676 335.481 208.372 335.481C209.069 335.481 209.627 336.038 209.627 336.735C209.627 337.432 209.069 337.99 208.372 337.99ZM208.372 333.963C207.676 333.963 207.118 333.405 207.118 332.709C207.118 332.012 207.676 331.454 208.372 331.454C209.069 331.454 209.627 332.012 209.627 332.709C209.627 333.405 209.069 333.963 208.372 333.963ZM208.372 329.936C207.676 329.936 207.118 329.379 207.118 328.682C207.118 327.985 207.676 327.428 208.372 327.428C209.069 327.428 209.627 327.985 209.627 328.682C209.627 329.379 209.069 329.936 208.372 329.936ZM208.372 325.91C207.676 325.91 207.118 325.352 207.118 324.655C207.118 323.958 207.676 323.401 208.372 323.401C209.069 323.401 209.627 323.958 209.627 324.655C209.627 325.352 209.069 325.91 208.372 325.91ZM212.91 333.963C212.213 333.963 211.656 333.405 211.656 332.709C211.656 332.012 212.213 331.454 212.91 331.454C213.607 331.454 214.165 332.012 214.165 332.709C214.165 333.405 213.607 333.963 212.91 333.963ZM212.91 329.936C212.213 329.936 211.656 329.379 211.656 328.682C211.656 327.985 212.213 327.428 212.91 327.428C213.607 327.428 214.165 327.985 214.165 328.682C214.165 329.379 213.607 329.936 212.91 329.936ZM212.91 325.91C212.213 325.91 211.656 325.352 211.656 324.655C211.656 323.958 212.213 323.401 212.91 323.401C213.607 323.401 214.165 323.958 214.165 324.655C214.165 325.352 213.607 325.91 212.91 325.91ZM212.91 321.883C212.213 321.883 211.656 321.326 211.656 320.629C211.656 319.932 212.213 319.374 212.91 319.374C213.607 319.374 214.165 319.932 214.165 320.629C214.165 321.326 213.607 321.883 212.91 321.883ZM217.432 325.91C216.735 325.91 216.178 325.352 216.178 324.655C216.178 323.958 216.735 323.401 217.432 323.401C218.129 323.401 218.687 323.958 218.687 324.655C218.687 325.352 218.129 325.91 217.432 325.91ZM217.432 321.883C216.735 321.883 216.178 321.326 216.178 320.629C216.178 319.932 216.735 319.374 217.432 319.374C218.129 319.374 218.687 319.932 218.687 320.629C218.687 321.326 218.129 321.883 217.432 321.883ZM217.432 317.857C216.735 317.857 216.178 317.299 216.178 316.602C216.178 315.905 216.735 315.348 217.432 315.348C218.129 315.348 218.687 315.905 218.687 316.602C218.687 317.299 218.129 317.857 217.432 317.857ZM217.432 313.83C216.735 313.83 216.178 313.273 216.178 312.576C216.178 311.879 216.735 311.321 217.432 311.321C218.129 311.321 218.687 311.879 218.687 312.576C218.687 313.273 218.129 313.83 217.432 313.83ZM221.97 321.883C221.273 321.883 220.715 321.326 220.715 320.629C220.715 319.932 221.273 319.374 221.97 319.374C222.667 319.374 223.224 319.932 223.224 320.629C223.224 321.326 222.667 321.883 221.97 321.883ZM221.97 317.857C221.273 317.857 220.715 317.299 220.715 316.602C220.715 315.905 221.273 315.348 221.97 315.348C222.667 315.348 223.224 315.905 223.224 316.602C223.224 317.299 222.667 317.857 221.97 317.857ZM221.97 313.83C221.273 313.83 220.715 313.273 220.715 312.576C220.715 311.879 221.273 311.321 221.97 311.321C222.667 311.321 223.224 311.879 223.224 312.576C223.224 313.273 222.667 313.83 221.97 313.83ZM221.97 309.804C221.273 309.804 220.715 309.246 220.715 308.549C220.715 307.852 221.273 307.295 221.97 307.295C222.667 307.295 223.224 307.852 223.224 308.549C223.224 309.246 222.667 309.804 221.97 309.804ZM221.97 305.777C221.273 305.777 220.715 305.219 220.715 304.523C220.715 303.826 221.273 303.268 221.97 303.268C222.667 303.268 223.224 303.826 223.224 304.523C223.224 305.219 222.667 305.777 221.97 305.777Z" fill="#006838"/>
<path d="M159.666 297.042C159.278 297.259 158.907 297.491 158.551 297.739C159.046 297.739 159.449 297.445 159.666 297.042Z" fill="#006838"/>
<path d="M217.431 297.724C217.06 297.476 216.688 297.244 216.316 297.027C216.517 297.43 216.936 297.724 217.431 297.724Z" fill="#006838"/>
<path d="M155.283 300.496V300.465C154.896 300.868 154.524 301.286 154.168 301.735C154.787 301.673 155.283 301.146 155.283 300.511V300.496Z" fill="#006838"/>
<path d="M158.566 299.241C157.869 299.241 157.312 299.799 157.312 300.496C157.312 301.193 157.869 301.75 158.566 301.75C158.86 301.75 159.108 301.642 159.325 301.472C159.418 300.945 159.526 300.418 159.65 299.907C159.433 299.52 159.046 299.241 158.566 299.241Z" fill="#006838"/>
<path d="M218.686 300.496C218.686 299.799 218.129 299.241 217.432 299.241C216.952 299.241 216.565 299.52 216.348 299.907C216.472 300.418 216.596 300.945 216.673 301.472C216.89 301.642 217.138 301.75 217.432 301.75C218.129 301.75 218.686 301.193 218.686 300.496Z" fill="#006838"/>
<path d="M221.831 301.735C221.49 301.301 221.103 300.883 220.716 300.465C220.716 300.465 220.716 300.48 220.716 300.496C220.716 301.146 221.211 301.657 221.831 301.719V301.735Z" fill="#006838"/>
<path d="M154.029 305.777C154.722 305.777 155.284 305.215 155.284 304.523C155.284 303.83 154.722 303.268 154.029 303.268C153.336 303.268 152.775 303.83 152.775 304.523C152.775 305.215 153.336 305.777 154.029 305.777Z" fill="#006838"/>
<path d="M157.312 304.523C157.312 305.219 157.869 305.777 158.566 305.777C158.752 305.777 158.938 305.73 159.093 305.653C159.046 304.894 159.046 304.151 159.093 303.392C158.938 303.315 158.752 303.268 158.566 303.268C157.869 303.268 157.312 303.826 157.312 304.523Z" fill="#006838"/>
<path d="M218.687 304.523C218.687 303.826 218.129 303.268 217.433 303.268C217.247 303.268 217.061 303.315 216.906 303.392C216.952 304.151 216.937 304.894 216.906 305.653C217.061 305.73 217.247 305.777 217.433 305.777C218.129 305.777 218.687 305.219 218.687 304.523Z" fill="#006838"/>
<path d="M221.97 305.777C222.663 305.777 223.224 305.215 223.224 304.523C223.224 303.83 222.663 303.268 221.97 303.268C221.277 303.268 220.716 303.83 220.716 304.523C220.716 305.215 221.277 305.777 221.97 305.777Z" fill="#006838"/>
<path d="M150.73 308.441C150.652 308.704 150.606 308.967 150.544 309.231C150.668 309.029 150.761 308.813 150.761 308.565C150.761 308.518 150.745 308.487 150.73 308.441Z" fill="#006838"/>
<path d="M154.029 309.803C154.722 309.803 155.284 309.242 155.284 308.549C155.284 307.856 154.722 307.294 154.029 307.294C153.336 307.294 152.775 307.856 152.775 308.549C152.775 309.242 153.336 309.803 154.029 309.803Z" fill="#006838"/>
<path d="M157.312 308.549C157.312 309.246 157.869 309.803 158.566 309.803C159.015 309.803 159.387 309.556 159.619 309.199C159.48 308.657 159.372 308.1 159.294 307.542C159.093 307.387 158.845 307.294 158.582 307.294C157.885 307.294 157.327 307.852 157.327 308.549H157.312Z" fill="#006838"/>
<path d="M217.432 309.803C218.129 309.803 218.687 309.246 218.687 308.549C218.687 307.852 218.129 307.294 217.432 307.294C217.154 307.294 216.921 307.403 216.72 307.542C216.627 308.1 216.519 308.642 216.395 309.199C216.612 309.556 216.999 309.803 217.448 309.803H217.432Z" fill="#006838"/>
<path d="M221.97 309.803C222.663 309.803 223.224 309.242 223.224 308.549C223.224 307.856 222.663 307.294 221.97 307.294C221.277 307.294 220.716 307.856 220.716 308.549C220.716 309.242 221.277 309.803 221.97 309.803Z" fill="#006838"/>
<path d="M225.238 308.549C225.238 308.797 225.331 309.014 225.455 309.215C225.393 308.952 225.331 308.689 225.269 308.425C225.269 308.472 225.238 308.503 225.238 308.549Z" fill="#006838"/>
<path d="M150.761 312.576C150.761 312.111 150.498 311.74 150.141 311.523C150.064 312.251 150.018 312.994 150.018 313.722C150.451 313.521 150.761 313.087 150.761 312.576Z" fill="#006838"/>
<path d="M154.029 313.83C154.722 313.83 155.284 313.268 155.284 312.575C155.284 311.883 154.722 311.321 154.029 311.321C153.336 311.321 152.775 311.883 152.775 312.575C152.775 313.268 153.336 313.83 154.029 313.83Z" fill="#006838"/>
<path d="M158.566 313.83C159.259 313.83 159.821 313.268 159.821 312.575C159.821 311.883 159.259 311.321 158.566 311.321C157.873 311.321 157.312 311.883 157.312 312.575C157.312 313.268 157.873 313.83 158.566 313.83Z" fill="#006838"/>
<path d="M217.431 313.83C218.124 313.83 218.686 313.268 218.686 312.575C218.686 311.883 218.124 311.321 217.431 311.321C216.739 311.321 216.177 311.883 216.177 312.575C216.177 313.268 216.739 313.83 217.431 313.83Z" fill="#006838"/>
<path d="M221.97 313.83C222.663 313.83 223.224 313.268 223.224 312.575C223.224 311.883 222.663 311.321 221.97 311.321C221.277 311.321 220.716 311.883 220.716 312.575C220.716 313.268 221.277 313.83 221.97 313.83Z" fill="#006838"/>
<path d="M225.238 312.576C225.238 313.087 225.548 313.521 225.981 313.722C225.981 312.994 225.935 312.251 225.857 311.523C225.486 311.74 225.238 312.127 225.238 312.576Z" fill="#006838"/>
<path d="M150.11 315.533C150.172 316.184 150.281 316.819 150.404 317.469C150.621 317.237 150.745 316.943 150.745 316.618C150.745 316.153 150.482 315.75 150.095 315.549L150.11 315.533Z" fill="#006838"/>
<path d="M154.029 317.857C154.722 317.857 155.284 317.295 155.284 316.602C155.284 315.91 154.722 315.348 154.029 315.348C153.336 315.348 152.775 315.91 152.775 316.602C152.775 317.295 153.336 317.857 154.029 317.857Z" fill="#006838"/>
<path d="M158.566 317.857C159.259 317.857 159.821 317.295 159.821 316.602C159.821 315.91 159.259 315.348 158.566 315.348C157.873 315.348 157.312 315.91 157.312 316.602C157.312 317.295 157.873 317.857 158.566 317.857Z" fill="#006838"/>
<path d="M161.834 316.602C161.834 317.299 162.392 317.857 163.088 317.857C163.46 317.857 163.785 317.686 164.018 317.423C163.46 316.819 162.949 316.184 162.484 315.518C162.097 315.735 161.834 316.122 161.834 316.602Z" fill="#006838"/>
<path d="M212.909 317.857C213.606 317.857 214.164 317.299 214.164 316.602C214.164 316.138 213.901 315.735 213.513 315.518C213.049 316.184 212.538 316.803 211.98 317.423C212.213 317.686 212.538 317.857 212.909 317.857Z" fill="#006838"/>
<path d="M217.431 317.857C218.124 317.857 218.686 317.295 218.686 316.602C218.686 315.91 218.124 315.348 217.431 315.348C216.739 315.348 216.177 315.91 216.177 316.602C216.177 317.295 216.739 317.857 217.431 317.857Z" fill="#006838"/>
<path d="M221.97 317.857C222.663 317.857 223.224 317.295 223.224 316.602C223.224 315.91 222.663 315.348 221.97 315.348C221.277 315.348 220.716 315.91 220.716 316.602C220.716 317.295 221.277 317.857 221.97 317.857Z" fill="#006838"/>
<path d="M225.237 316.602C225.237 316.943 225.376 317.237 225.577 317.454C225.701 316.819 225.81 316.169 225.872 315.518C225.484 315.735 225.221 316.122 225.221 316.587L225.237 316.602Z" fill="#006838"/>
<path d="M154.029 321.883C154.722 321.883 155.284 321.322 155.284 320.629C155.284 319.936 154.722 319.374 154.029 319.374C153.336 319.374 152.775 319.936 152.775 320.629C152.775 321.322 153.336 321.883 154.029 321.883Z" fill="#006838"/>
<path d="M158.566 321.883C159.259 321.883 159.821 321.322 159.821 320.629C159.821 319.936 159.259 319.374 158.566 319.374C157.873 319.374 157.312 319.936 157.312 320.629C157.312 321.322 157.873 321.883 158.566 321.883Z" fill="#006838"/>
<path d="M163.088 321.883C163.781 321.883 164.343 321.322 164.343 320.629C164.343 319.936 163.781 319.374 163.088 319.374C162.396 319.374 161.834 319.936 161.834 320.629C161.834 321.322 162.396 321.883 163.088 321.883Z" fill="#006838"/>
<path d="M167.61 321.883C167.843 321.883 168.044 321.806 168.23 321.698L166.542 320.01C166.433 320.195 166.356 320.397 166.356 320.629C166.356 321.326 166.913 321.883 167.61 321.883Z" fill="#006838"/>
<path d="M209.627 320.629C209.627 320.397 209.549 320.195 209.441 320.01L207.753 321.698C207.939 321.806 208.14 321.883 208.372 321.883C209.069 321.883 209.627 321.326 209.627 320.629Z" fill="#006838"/>
<path d="M212.909 321.883C213.602 321.883 214.164 321.322 214.164 320.629C214.164 319.936 213.602 319.374 212.909 319.374C212.217 319.374 211.655 319.936 211.655 320.629C211.655 321.322 212.217 321.883 212.909 321.883Z" fill="#006838"/>
<path d="M217.431 321.883C218.124 321.883 218.686 321.322 218.686 320.629C218.686 319.936 218.124 319.374 217.431 319.374C216.739 319.374 216.177 319.936 216.177 320.629C216.177 321.322 216.739 321.883 217.431 321.883Z" fill="#006838"/>
<path d="M221.97 321.883C222.663 321.883 223.224 321.322 223.224 320.629C223.224 319.936 222.663 319.374 221.97 319.374C221.277 319.374 220.716 319.936 220.716 320.629C220.716 321.322 221.277 321.883 221.97 321.883Z" fill="#006838"/>
<path d="M155.283 324.655C155.283 323.958 154.726 323.401 154.029 323.401C153.611 323.401 153.27 323.618 153.038 323.927C153.456 324.578 153.921 325.213 154.432 325.832C154.912 325.662 155.268 325.213 155.268 324.655H155.283Z" fill="#006838"/>
<path d="M158.566 325.91C159.259 325.91 159.821 325.348 159.821 324.655C159.821 323.963 159.259 323.401 158.566 323.401C157.873 323.401 157.312 323.963 157.312 324.655C157.312 325.348 157.873 325.91 158.566 325.91Z" fill="#006838"/>
<path d="M163.088 325.91C163.781 325.91 164.343 325.348 164.343 324.655C164.343 323.963 163.781 323.401 163.088 323.401C162.396 323.401 161.834 323.963 161.834 324.655C161.834 325.348 162.396 325.91 163.088 325.91Z" fill="#006838"/>
<path d="M167.61 325.91C168.303 325.91 168.865 325.348 168.865 324.655C168.865 323.963 168.303 323.401 167.61 323.401C166.918 323.401 166.356 323.963 166.356 324.655C166.356 325.348 166.918 325.91 167.61 325.91Z" fill="#006838"/>
<path d="M172.149 325.91C172.242 325.91 172.319 325.879 172.397 325.863L170.941 324.407C170.926 324.485 170.895 324.562 170.895 324.655C170.895 325.352 171.452 325.91 172.149 325.91Z" fill="#006838"/>
<path d="M205.104 324.655C205.104 324.562 205.073 324.485 205.057 324.407L203.602 325.863C203.679 325.879 203.756 325.91 203.849 325.91C204.546 325.91 205.104 325.352 205.104 324.655Z" fill="#006838"/>
<path d="M208.372 325.91C209.065 325.91 209.627 325.348 209.627 324.655C209.627 323.963 209.065 323.401 208.372 323.401C207.68 323.401 207.118 323.963 207.118 324.655C207.118 325.348 207.68 325.91 208.372 325.91Z" fill="#006838"/>
<path d="M212.909 325.91C213.602 325.91 214.164 325.348 214.164 324.655C214.164 323.963 213.602 323.401 212.909 323.401C212.217 323.401 211.655 323.963 211.655 324.655C211.655 325.348 212.217 325.91 212.909 325.91Z" fill="#006838"/>
<path d="M217.431 325.91C218.124 325.91 218.686 325.348 218.686 324.655C218.686 323.963 218.124 323.401 217.431 323.401C216.739 323.401 216.177 323.963 216.177 324.655C216.177 325.348 216.739 325.91 217.431 325.91Z" fill="#006838"/>
<path d="M221.97 323.401C221.273 323.401 220.716 323.958 220.716 324.655C220.716 325.197 221.072 325.662 221.552 325.832C222.063 325.213 222.528 324.578 222.946 323.927C222.713 323.618 222.373 323.401 221.955 323.401H221.97Z" fill="#006838"/>
<path d="M159.821 328.682C159.821 327.985 159.263 327.427 158.566 327.427C157.869 327.427 157.312 327.985 157.312 328.682C157.312 328.744 157.343 328.79 157.343 328.852L158.396 329.905C158.396 329.905 158.504 329.936 158.566 329.936C159.263 329.936 159.821 329.379 159.821 328.682Z" fill="#006838"/>
<path d="M163.088 329.936C163.781 329.936 164.343 329.374 164.343 328.682C164.343 327.989 163.781 327.427 163.088 327.427C162.396 327.427 161.834 327.989 161.834 328.682C161.834 329.374 162.396 329.936 163.088 329.936Z" fill="#006838"/>
<path d="M167.61 329.936C168.303 329.936 168.865 329.374 168.865 328.682C168.865 327.989 168.303 327.427 167.61 327.427C166.918 327.427 166.356 327.989 166.356 328.682C166.356 329.374 166.918 329.936 167.61 329.936Z" fill="#006838"/>
<path d="M172.149 329.936C172.842 329.936 173.403 329.374 173.403 328.682C173.403 327.989 172.842 327.427 172.149 327.427C171.456 327.427 170.895 327.989 170.895 328.682C170.895 329.374 171.456 329.936 172.149 329.936Z" fill="#006838"/>
<path d="M176.423 329.89L175.479 328.945C175.587 329.425 175.943 329.797 176.423 329.89Z" fill="#006838"/>
<path d="M200.52 328.93L199.575 329.875C200.056 329.766 200.427 329.41 200.52 328.93Z" fill="#006838"/>
<path d="M203.85 329.936C204.543 329.936 205.105 329.374 205.105 328.682C205.105 327.989 204.543 327.427 203.85 327.427C203.157 327.427 202.596 327.989 202.596 328.682C202.596 329.374 203.157 329.936 203.85 329.936Z" fill="#006838"/>
<path d="M208.372 329.936C209.065 329.936 209.627 329.374 209.627 328.682C209.627 327.989 209.065 327.427 208.372 327.427C207.68 327.427 207.118 327.989 207.118 328.682C207.118 329.374 207.68 329.936 208.372 329.936Z" fill="#006838"/>
<path d="M212.909 329.936C213.602 329.936 214.164 329.374 214.164 328.682C214.164 327.989 213.602 327.427 212.909 327.427C212.217 327.427 211.655 327.989 211.655 328.682C211.655 329.374 212.217 329.936 212.909 329.936Z" fill="#006838"/>
<path d="M217.431 327.427C216.735 327.427 216.177 327.985 216.177 328.682C216.177 329.379 216.735 329.936 217.431 329.936C217.493 329.936 217.54 329.905 217.602 329.905L218.655 328.852C218.655 328.852 218.686 328.744 218.686 328.682C218.686 327.985 218.128 327.427 217.431 327.427Z" fill="#006838"/>
<path d="M163.088 333.963C163.781 333.963 164.343 333.401 164.343 332.709C164.343 332.016 163.781 331.454 163.088 331.454C162.396 331.454 161.834 332.016 161.834 332.709C161.834 333.401 162.396 333.963 163.088 333.963Z" fill="#006838"/>
<path d="M167.61 333.963C168.303 333.963 168.865 333.401 168.865 332.709C168.865 332.016 168.303 331.454 167.61 331.454C166.918 331.454 166.356 332.016 166.356 332.709C166.356 333.401 166.918 333.963 167.61 333.963Z" fill="#006838"/>
<path d="M172.149 333.963C172.842 333.963 173.403 333.401 173.403 332.709C173.403 332.016 172.842 331.454 172.149 331.454C171.456 331.454 170.895 332.016 170.895 332.709C170.895 333.401 171.456 333.963 172.149 333.963Z" fill="#006838"/>
<path d="M176.671 333.963C177.364 333.963 177.926 333.401 177.926 332.709C177.926 332.016 177.364 331.454 176.671 331.454C175.978 331.454 175.417 332.016 175.417 332.709C175.417 333.401 175.978 333.963 176.671 333.963Z" fill="#006838"/>
<path d="M199.312 333.963C200.004 333.963 200.566 333.401 200.566 332.709C200.566 332.016 200.004 331.454 199.312 331.454C198.619 331.454 198.057 332.016 198.057 332.709C198.057 333.401 198.619 333.963 199.312 333.963Z" fill="#006838"/>
<path d="M203.85 333.963C204.543 333.963 205.105 333.401 205.105 332.709C205.105 332.016 204.543 331.454 203.85 331.454C203.157 331.454 202.596 332.016 202.596 332.709C202.596 333.401 203.157 333.963 203.85 333.963Z" fill="#006838"/>
<path d="M208.372 333.963C209.065 333.963 209.627 333.401 209.627 332.709C209.627 332.016 209.065 331.454 208.372 331.454C207.68 331.454 207.118 332.016 207.118 332.709C207.118 333.401 207.68 333.963 208.372 333.963Z" fill="#006838"/>
<path d="M212.909 333.963C213.602 333.963 214.164 333.401 214.164 332.709C214.164 332.016 213.602 331.454 212.909 331.454C212.217 331.454 211.655 332.016 211.655 332.709C211.655 333.401 212.217 333.963 212.909 333.963Z" fill="#006838"/>
<path d="M167.61 337.99C168.303 337.99 168.865 337.428 168.865 336.735C168.865 336.042 168.303 335.481 167.61 335.481C166.918 335.481 166.356 336.042 166.356 336.735C166.356 337.428 166.918 337.99 167.61 337.99Z" fill="#006838"/>
<path d="M172.149 337.99C172.842 337.99 173.403 337.428 173.403 336.735C173.403 336.042 172.842 335.481 172.149 335.481C171.456 335.481 170.895 336.042 170.895 336.735C170.895 337.428 171.456 337.99 172.149 337.99Z" fill="#006838"/>
<path d="M176.671 337.99C177.364 337.99 177.926 337.428 177.926 336.735C177.926 336.042 177.364 335.481 176.671 335.481C175.978 335.481 175.417 336.042 175.417 336.735C175.417 337.428 175.978 337.99 176.671 337.99Z" fill="#006838"/>
<path d="M181.208 337.99C181.901 337.99 182.463 337.428 182.463 336.735C182.463 336.042 181.901 335.481 181.208 335.481C180.515 335.481 179.954 336.042 179.954 336.735C179.954 337.428 180.515 337.99 181.208 337.99Z" fill="#006838"/>
<path d="M194.79 335.481C194.093 335.481 193.535 336.038 193.535 336.735C193.535 337.432 194.093 337.99 194.79 337.99C195.486 337.99 196.044 337.432 196.044 336.735C196.044 336.038 195.486 335.481 194.79 335.481Z" fill="#006838"/>
<path d="M199.312 337.99C200.004 337.99 200.566 337.428 200.566 336.735C200.566 336.042 200.004 335.481 199.312 335.481C198.619 335.481 198.057 336.042 198.057 336.735C198.057 337.428 198.619 337.99 199.312 337.99Z" fill="#006838"/>
<path d="M203.85 337.99C204.543 337.99 205.105 337.428 205.105 336.735C205.105 336.042 204.543 335.481 203.85 335.481C203.157 335.481 202.596 336.042 202.596 336.735C202.596 337.428 203.157 337.99 203.85 337.99Z" fill="#006838"/>
<path d="M208.372 337.99C209.065 337.99 209.627 337.428 209.627 336.735C209.627 336.042 209.065 335.481 208.372 335.481C207.68 335.481 207.118 336.042 207.118 336.735C207.118 337.428 207.68 337.99 208.372 337.99Z" fill="#006838"/>
<path d="M168.091 339.6L168.772 340.282C168.648 339.972 168.4 339.724 168.091 339.6Z" fill="#006838"/>
<path d="M172.149 342.016C172.842 342.016 173.403 341.454 173.403 340.762C173.403 340.069 172.842 339.507 172.149 339.507C171.456 339.507 170.895 340.069 170.895 340.762C170.895 341.454 171.456 342.016 172.149 342.016Z" fill="#006838"/>
<path d="M176.671 342.016C177.364 342.016 177.926 341.454 177.926 340.762C177.926 340.069 177.364 339.507 176.671 339.507C175.978 339.507 175.417 340.069 175.417 340.762C175.417 341.454 175.978 342.016 176.671 342.016Z" fill="#006838"/>
<path d="M181.208 342.016C181.901 342.016 182.463 341.454 182.463 340.762C182.463 340.069 181.901 339.507 181.208 339.507C180.515 339.507 179.954 340.069 179.954 340.762C179.954 341.454 180.515 342.016 181.208 342.016Z" fill="#006838"/>
<path d="M185.73 342.016C186.423 342.016 186.985 341.454 186.985 340.762C186.985 340.069 186.423 339.507 185.73 339.507C185.037 339.507 184.476 340.069 184.476 340.762C184.476 341.454 185.037 342.016 185.73 342.016Z" fill="#006838"/>
<path d="M190.267 342.016C190.96 342.016 191.522 341.454 191.522 340.762C191.522 340.069 190.96 339.507 190.267 339.507C189.575 339.507 189.013 340.069 189.013 340.762C189.013 341.454 189.575 342.016 190.267 342.016Z" fill="#006838"/>
<path d="M194.79 339.507C194.093 339.507 193.535 340.065 193.535 340.762C193.535 341.458 194.093 342.016 194.79 342.016C195.486 342.016 196.044 341.458 196.044 340.762C196.044 340.065 195.486 339.507 194.79 339.507Z" fill="#006838"/>
<path d="M199.312 342.016C200.004 342.016 200.566 341.454 200.566 340.762C200.566 340.069 200.004 339.507 199.312 339.507C198.619 339.507 198.057 340.069 198.057 340.762C198.057 341.454 198.619 342.016 199.312 342.016Z" fill="#006838"/>
<path d="M203.85 342.016C204.543 342.016 205.105 341.454 205.105 340.762C205.105 340.069 204.543 339.507 203.85 339.507C203.157 339.507 202.596 340.069 202.596 340.762C202.596 341.454 203.157 342.016 203.85 342.016Z" fill="#006838"/>
<path d="M207.21 340.282L207.891 339.6C207.582 339.724 207.334 339.972 207.21 340.282Z" fill="#006838"/>
<path d="M172.148 343.534C172.148 343.534 172.086 343.549 172.04 343.549L173.371 344.881C173.371 344.881 173.387 344.819 173.387 344.773C173.387 344.076 172.829 343.518 172.132 343.518L172.148 343.534Z" fill="#006838"/>
<path d="M176.671 346.043C177.364 346.043 177.926 345.481 177.926 344.788C177.926 344.096 177.364 343.534 176.671 343.534C175.978 343.534 175.417 344.096 175.417 344.788C175.417 345.481 175.978 346.043 176.671 346.043Z" fill="#006838"/>
<path d="M181.208 346.043C181.901 346.043 182.463 345.481 182.463 344.788C182.463 344.096 181.901 343.534 181.208 343.534C180.515 343.534 179.954 344.096 179.954 344.788C179.954 345.481 180.515 346.043 181.208 346.043Z" fill="#006838"/>
<path d="M185.73 346.043C186.423 346.043 186.985 345.481 186.985 344.788C186.985 344.096 186.423 343.534 185.73 343.534C185.037 343.534 184.476 344.096 184.476 344.788C184.476 345.481 185.037 346.043 185.73 346.043Z" fill="#006838"/>
<path d="M190.267 346.043C190.96 346.043 191.522 345.481 191.522 344.788C191.522 344.096 190.96 343.534 190.267 343.534C189.575 343.534 189.013 344.096 189.013 344.788C189.013 345.481 189.575 346.043 190.267 346.043Z" fill="#006838"/>
<path d="M194.79 343.534C194.093 343.534 193.535 344.091 193.535 344.788C193.535 345.485 194.093 346.043 194.79 346.043C195.486 346.043 196.044 345.485 196.044 344.788C196.044 344.091 195.486 343.534 194.79 343.534Z" fill="#006838"/>
<path d="M199.312 346.043C200.004 346.043 200.566 345.481 200.566 344.788C200.566 344.096 200.004 343.534 199.312 343.534C198.619 343.534 198.057 344.096 198.057 344.788C198.057 345.481 198.619 346.043 199.312 346.043Z" fill="#006838"/>
<path d="M202.596 344.788C202.596 344.788 202.612 344.85 202.612 344.897L203.943 343.565C203.943 343.565 203.881 343.549 203.835 343.549C203.138 343.549 202.581 344.107 202.581 344.804L202.596 344.788Z" fill="#006838"/>
<path d="M176.67 347.56C176.562 347.56 176.453 347.591 176.36 347.622C176.856 348.009 177.382 348.366 177.909 348.706C177.847 348.071 177.336 347.56 176.686 347.56H176.67Z" fill="#006838"/>
<path d="M181.208 347.56C180.511 347.56 179.954 348.118 179.954 348.815C179.954 349.512 180.511 350.069 181.208 350.069C181.905 350.069 182.463 349.512 182.463 348.815C182.463 348.118 181.905 347.56 181.208 347.56Z" fill="#006838"/>
<path d="M185.73 347.56C185.033 347.56 184.476 348.118 184.476 348.815C184.476 349.512 185.033 350.069 185.73 350.069C186.427 350.069 186.985 349.512 186.985 348.815C186.985 348.118 186.427 347.56 185.73 347.56Z" fill="#006838"/>
<path d="M190.267 347.56C189.57 347.56 189.013 348.118 189.013 348.815C189.013 349.512 189.57 350.069 190.267 350.069C190.964 350.069 191.522 349.512 191.522 348.815C191.522 348.118 190.964 347.56 190.267 347.56Z" fill="#006838"/>
<path d="M194.79 347.56C194.093 347.56 193.535 348.118 193.535 348.815C193.535 349.512 194.093 350.069 194.79 350.069C195.486 350.069 196.044 349.512 196.044 348.815C196.044 348.118 195.486 347.56 194.79 347.56Z" fill="#006838"/>
<path d="M198.089 348.691C198.615 348.366 199.126 347.994 199.638 347.607C199.529 347.576 199.436 347.545 199.328 347.545C198.677 347.545 198.151 348.056 198.104 348.691H198.089Z" fill="#006838"/>
<path d="M111.146 458.415L107.971 450.129V458.415H105.602V445.344H108.172L112.199 455.829L116.21 445.344H118.781V458.415H116.411V450.129L113.237 458.415H111.099H111.146Z" fill="#006838"/>
<path d="M123.349 458.415H120.917V445.344H123.349V458.415Z" fill="#006838"/>
<path d="M127.857 449.541V458.415H125.456V445.344H127.934L132.534 454.233V445.344H134.934V458.415H132.456L127.857 449.541Z" fill="#006838"/>
<path d="M141.825 458.415H137.04V445.344H141.825C146.177 445.344 146.889 448.596 146.889 451.864C146.889 455.132 146.13 458.399 141.825 458.399V458.415ZM141.639 447.419H139.456V456.355H141.639C143.652 456.355 144.473 455.364 144.473 451.879C144.473 448.395 143.637 447.419 141.639 447.419Z" fill="#006838"/>
<path d="M155.995 453.676V458.415H153.564V445.344H158.783C161.416 445.344 162.98 446.862 162.98 449.51C162.98 452.158 161.416 453.676 158.783 453.676H155.995ZM158.442 451.601C159.852 451.601 160.564 450.857 160.564 449.51C160.564 448.163 159.852 447.419 158.442 447.419H155.98V451.616H158.442V451.601Z" fill="#006838"/>
<path d="M171.296 455.565C171.234 454.218 170.615 453.661 169.159 453.661H166.913V458.4H164.482V445.329H169.716C172.458 445.329 173.913 446.8 173.913 449.324C173.913 451.043 173.155 452.158 171.637 452.607C173.015 452.824 173.588 453.661 173.681 455.38L173.79 457.192C173.821 457.687 173.898 458.09 174.022 458.384H171.575C171.467 458.105 171.389 457.687 171.374 457.223L171.281 455.534L171.296 455.565ZM169.329 451.601C170.661 451.601 171.497 451.043 171.497 449.51C171.497 447.977 170.677 447.419 169.329 447.419H166.913V451.616H169.329V451.601Z" fill="#006838"/>
<path d="M175.772 445.344H183.732V447.404H178.203V450.687H183.066V452.731H178.203V456.34H183.825V458.4H175.787V445.329L175.772 445.344Z" fill="#006838"/>
<path d="M189.865 458.647C186.954 458.647 185.235 457.021 185.235 454.714V454.497H187.651V454.776C187.651 455.86 188.487 456.603 189.865 456.603C191.244 456.603 192.08 455.86 192.08 454.776C192.08 453.815 191.476 453.149 190.253 452.902L188.673 452.576C186.551 452.143 185.25 450.981 185.25 448.844C185.25 446.707 186.737 445.112 189.633 445.112C192.529 445.112 194.031 446.831 194.031 448.829V449.014H191.6V448.829C191.6 447.853 190.903 447.156 189.633 447.156C188.363 447.156 187.666 447.853 187.666 448.829C187.666 449.804 188.239 450.284 189.494 450.548L191.058 450.873C193.242 451.322 194.496 452.592 194.496 454.683C194.496 456.99 192.792 458.632 189.865 458.632V458.647Z" fill="#006838"/>
<path d="M197.02 446.955C197.841 445.809 199.11 445.127 201.031 445.127C204.097 445.127 205.94 447.017 206.064 449.773H203.648C203.571 448.194 202.641 447.218 201.015 447.218C200.055 447.218 199.374 447.574 198.956 448.209C198.476 448.922 198.243 449.928 198.243 451.895C198.243 453.862 198.476 454.884 198.956 455.612C199.389 456.247 200.055 456.603 201.015 456.603C202.641 456.603 203.555 455.628 203.648 454.048H206.064C205.925 456.805 204.097 458.678 201.031 458.678C199.11 458.678 197.841 457.997 197.02 456.866C196.06 455.535 195.843 453.738 195.843 451.911C195.843 450.083 196.06 448.333 197.02 446.986V446.955Z" fill="#006838"/>
<path d="M214.614 455.565C214.552 454.218 213.932 453.661 212.477 453.661H210.231V458.4H207.8V445.329H213.034C215.775 445.329 217.231 446.8 217.231 449.324C217.231 451.043 216.472 452.158 214.954 452.607C216.333 452.824 216.906 453.661 216.999 455.38L217.107 457.192C217.138 457.687 217.216 458.09 217.339 458.384H214.893C214.784 458.105 214.707 457.687 214.691 457.223L214.598 455.534L214.614 455.565ZM212.647 451.601C213.979 451.601 214.815 451.043 214.815 449.51C214.815 447.977 213.994 447.419 212.647 447.419H210.231V451.616H212.647V451.601Z" fill="#006838"/>
<path d="M221.504 458.415H219.073V445.344H221.504V458.415Z" fill="#006838"/>
<path d="M226.043 453.676V458.415H223.612V445.344H228.831C231.463 445.344 233.028 446.862 233.028 449.51C233.028 452.158 231.463 453.676 228.831 453.676H226.043ZM228.505 451.601C229.915 451.601 230.627 450.857 230.627 449.51C230.627 448.163 229.915 447.419 228.505 447.419H226.043V451.616H228.505V451.601Z" fill="#006838"/>
<path d="M233.725 445.344H243.219V447.404H239.688V458.399H237.256V447.404H233.725V445.344Z" fill="#006838"/>
<path d="M246.935 458.415H244.504V445.344H246.935V458.415Z" fill="#006838"/>
<path d="M257.946 456.835C257.126 457.982 255.856 458.647 253.951 458.647C252.046 458.647 250.76 457.966 249.94 456.835C248.98 455.504 248.763 453.707 248.763 451.88C248.763 450.052 248.98 448.302 249.94 446.955C250.76 445.809 252.03 445.127 253.951 445.127C255.871 445.127 257.126 445.824 257.946 446.955C258.907 448.287 259.123 450.068 259.123 451.88C259.123 453.692 258.907 455.504 257.946 456.835ZM255.995 448.194C255.561 447.559 254.895 447.203 253.951 447.203C253.006 447.203 252.309 447.559 251.891 448.194C251.411 448.906 251.179 449.913 251.179 451.88C251.179 453.847 251.411 454.869 251.891 455.597C252.325 456.232 252.991 456.588 253.951 456.588C254.911 456.588 255.577 456.232 255.995 455.597C256.491 454.869 256.707 453.877 256.707 451.88C256.707 449.882 256.491 448.906 255.995 448.194Z" fill="#006838"/>
<path d="M263.32 449.541V458.415H260.919V445.344H263.397L267.997 454.233V445.344H270.397V458.415H267.919L263.32 449.541Z" fill="#006838"/>
</g>
<defs>
<clipPath id="clip0_138_2">
<rect width="282" height="165.647" fill="white" transform="translate(47 293)"/>
</clipPath>
</defs>
</svg>
